<svg xmlns="http://www.w3.org/2000/svg" viewBox="0 0 750 500"><g id="freepik--Floor--inject-67"><path d="M50.69,441.77c207.77-.62,440.85-.62,648.62,0-207.77.61-440.85.61-648.62,0Z" style="fill:#263238"></path></g><g id="freepik--Text--inject-67"><g style="isolation:isolate"><path d="M512.67,99.13a6.51,6.51,0,0,1,6.59,6.37v68.34a6.51,6.51,0,0,1-6.59,6.37,6.33,6.33,0,0,1-6.47-6.37V105.5A6.33,6.33,0,0,1,512.67,99.13Z" style="fill:#FFC727"></path><path d="M519.26,173.84v8.84a6.51,6.51,0,0,1-6.59,6.38,6.34,6.34,0,0,1-6.47-6.38v-8.84a6.33,6.33,0,0,0,6.47,6.37A6.51,6.51,0,0,0,519.26,173.84Z" style="fill:#FFC727"></path><g style="opacity:0.1"><path d="M519.26,173.84v8.84a6.51,6.51,0,0,1-6.59,6.38,6.34,6.34,0,0,1-6.47-6.38v-8.84a6.33,6.33,0,0,0,6.47,6.37A6.51,6.51,0,0,0,519.26,173.84Z"></path></g></g><g style="isolation:isolate"><path d="M604.66,138.52v8.84a29.8,29.8,0,0,0-8-20.28,25.57,25.57,0,0,0-18.59-8.22A25.82,25.82,0,0,0,559,127.08a29.25,29.25,0,0,0-8,20.28v-8.84a29.23,29.23,0,0,1,8-20.28,25.64,25.64,0,0,1,37.65,0A29.78,29.78,0,0,1,604.66,138.52Z" style="fill:#FFC727"></path><g style="opacity:0.1"><path d="M604.66,138.52v8.84a29.8,29.8,0,0,0-8-20.28,25.57,25.57,0,0,0-18.59-8.22A25.82,25.82,0,0,0,559,127.08a29.25,29.25,0,0,0-8,20.28v-8.84a29.23,29.23,0,0,1,8-20.28,25.64,25.64,0,0,1,37.65,0A29.78,29.78,0,0,1,604.66,138.52Z"></path></g><path d="M606.18,109.2a42.1,42.1,0,0,1,0,58.62,38.78,38.78,0,0,1-28.11,12.39,40,40,0,0,1-28.82-12.39,42.72,42.72,0,0,1,0-58.62,39.53,39.53,0,0,1,28.82-12.39A38.33,38.33,0,0,1,606.18,109.2Zm-9.52,49.47a29.26,29.26,0,0,0,8-20.15,29.78,29.78,0,0,0-8-20.28,25.64,25.64,0,0,0-37.65,0,29.23,29.23,0,0,0-8,20.28,28.73,28.73,0,0,0,8,20.15,25.41,25.41,0,0,0,37.65,0" style="fill:#FFC727"></path><path d="M618.06,138.52v8.84a41.94,41.94,0,0,1-11.88,29.3,38.79,38.79,0,0,1-28.11,12.4,40,40,0,0,1-28.82-12.4,41.74,41.74,0,0,1-11.64-29.3v-8.84a41.74,41.74,0,0,0,11.64,29.3,40,40,0,0,0,28.82,12.4,38.79,38.79,0,0,0,28.11-12.4A41.94,41.94,0,0,0,618.06,138.52Z" style="fill:#FFC727"></path><g style="opacity:0.1"><path d="M618.06,138.52v8.84a41.94,41.94,0,0,1-11.88,29.3,38.79,38.79,0,0,1-28.11,12.4,40,40,0,0,1-28.82-12.4,41.74,41.74,0,0,1-11.64-29.3v-8.84a41.74,41.74,0,0,0,11.64,29.3,40,40,0,0,0,28.82,12.4,38.79,38.79,0,0,0,28.11-12.4A41.94,41.94,0,0,0,618.06,138.52Z"></path></g></g><g style="isolation:isolate"><path d="M635.09,115v-8.84c0,.11,0,.23,0,.35v8.84C635.1,115.26,635.09,115.15,635.09,115Z" style="fill:#FFC727"></path><path d="M697.45,173.84v8.84a6.38,6.38,0,0,1-11.3,4.06,3.09,3.09,0,0,1-.59-.7l-37.63-51.42v-8.86l37.63,51.44a2.86,2.86,0,0,0,.59.69,6.41,6.41,0,0,0,4.82,2.33A6.49,6.49,0,0,0,697.45,173.84Z" style="fill:#FFC727"></path><g style="opacity:0.1"><path d="M697.45,173.84v8.84a6.38,6.38,0,0,1-11.3,4.06,3.09,3.09,0,0,1-.59-.7l-37.63-51.42v-8.86l37.63,51.44a2.86,2.86,0,0,0,.59.69,6.41,6.41,0,0,0,4.82,2.33A6.49,6.49,0,0,0,697.45,173.84Z"></path></g><path d="M641.5,99.93a6.28,6.28,0,0,1,5.13,2.55l38,51.79V106.54a6.36,6.36,0,0,1,6.36-6.26,6.46,6.46,0,0,1,6.47,6.26v67.3a6.38,6.38,0,0,1-11.3,4,2.76,2.76,0,0,1-.58-.69l-37.64-51.43v48.07a6.42,6.42,0,0,1-12.83,0v-67.3a6.32,6.32,0,0,1,2.59-5.45A6.86,6.86,0,0,1,641.5,99.93Z" style="fill:#FFC727"></path><path d="M647.93,173.84v8.84a6.42,6.42,0,0,1-12.83,0v-8.84a6.42,6.42,0,0,0,12.83,0Z" style="fill:#FFC727"></path><g style="opacity:0.1"><path d="M647.93,173.84v8.84a6.42,6.42,0,0,1-12.83,0v-8.84a6.42,6.42,0,0,0,12.83,0Z"></path></g></g><path d="M481.63,99.13a6.41,6.41,0,0,1,6.47,6.37,6.57,6.57,0,0,1-6.47,6.48H462.92v61.86a6.33,6.33,0,0,1-6.47,6.37,6.39,6.39,0,0,1-6.46-6.37V112H431.4a6.49,6.49,0,0,1-6.47-6.48,6.33,6.33,0,0,1,6.47-6.37Z" style="fill:#FFC727"></path><path d="M462.92,173.84v8.84a6.33,6.33,0,0,1-6.47,6.38,6.4,6.4,0,0,1-6.46-6.38v-8.84a6.39,6.39,0,0,0,6.46,6.37A6.33,6.33,0,0,0,462.92,173.84Z" style="fill:#FFC727"></path><g style="opacity:0.1"><path d="M462.92,173.84v8.84a6.33,6.33,0,0,1-6.47,6.38,6.4,6.4,0,0,1-6.46-6.38v-8.84a6.39,6.39,0,0,0,6.46,6.37A6.33,6.33,0,0,0,462.92,173.84Z"></path></g><path d="M450,112v8.84H431.4a6.49,6.49,0,0,1-6.47-6.47V105.5A6.49,6.49,0,0,0,431.4,112Z" style="fill:#FFC727"></path><g style="opacity:0.1"><path d="M450,112v8.84H431.4a6.49,6.49,0,0,1-6.47-6.47V105.5A6.49,6.49,0,0,0,431.4,112Z"></path></g><path d="M488.1,105.5v8.85a6.57,6.57,0,0,1-6.48,6.47h-18.7V112h18.7A6.57,6.57,0,0,0,488.1,105.5Z" style="fill:#FFC727"></path><g style="opacity:0.1"><path d="M488.1,105.5v8.85a6.57,6.57,0,0,1-6.48,6.47h-18.7V112h18.7A6.57,6.57,0,0,0,488.1,105.5Z"></path></g><path d="M290.09,88.55c-.08-.11-7.63-11.73-14.61-11.88-3.6-.11-6.79,2.12-9.9,4.23-2.82,1.93-5.48,3.74-8.2,3.67a8,8,0,0,1-6.32-3.89c-1.77-2.68-2.35-6.07-1.43-8.44l.7.27c-.84,2.16-.29,5.27,1.36,7.75a7.28,7.28,0,0,0,5.71,3.56c2.47.06,5-1.68,7.76-3.53,3.2-2.19,6.5-4.44,10.33-4.37,7.38.16,14.91,11.74,15.23,12.23Z" style="fill:#263238"></path><path d="M250.21,73.07l-.18-.73a7.65,7.65,0,0,0,3.19-1.86c1.46-1.44,3.49-5.71,3.51-5.75l.68.32c-.09.18-2.11,4.43-3.66,6A8.49,8.49,0,0,1,250.21,73.07Z" style="fill:#FFC727"></path><path d="M249.27,72.43A19.75,19.75,0,0,1,248,68.51c-.26-1.65,1.68-6.34,1.9-6.87l.7.29c-.59,1.38-2.05,5.25-1.86,6.47A19.63,19.63,0,0,0,250,72.12Z" style="fill:#FFC727"></path><path d="M250.16,72.81l-.54-.52a32.62,32.62,0,0,0,3.48-4.24c.6-1.23,2.71-5.68,2.71-5.68l.68.32s-2.12,4.46-2.72,5.69A31.16,31.16,0,0,1,250.16,72.81Z" style="fill:#FFC727"></path><path d="M250.09,72.48l-.75-.09c.07-.54.66-5.22,1.24-6.38s1.69-4.58,1.71-4.62l.71.24c-.05.14-1.18,3.56-1.75,4.71A35.74,35.74,0,0,0,250.09,72.48Z" style="fill:#FFC727"></path><polygon points="315.58 99.32 358.93 83.2 312.62 70.31 271 91.98 315.58 99.32" style="fill:#37474f"></polygon><path d="M338.87,101l.18-13.56s-14.25-4.88-24.81-3.8-22.91,7.61-22.91,7.61l2.34,14.36s15-4.52,23.57-5.22S338.87,101,338.87,101Z" style="fill:#455a64"></path><path d="M104,105.5v8.85a6.57,6.57,0,0,1-6.47,6.47H65.61V112H97.49A6.58,6.58,0,0,0,104,105.5Z" style="fill:#FFC727"></path><g style="opacity:0.1"><path d="M104,105.5v8.85a6.57,6.57,0,0,1-6.47,6.47H65.61V112H97.49A6.58,6.58,0,0,0,104,105.5Z"></path></g><path d="M99.5,139.56v8.84A6.5,6.5,0,0,1,93,154.88H65.61V146H93A6.5,6.5,0,0,0,99.5,139.56Z" style="fill:#FFC727"></path><g style="opacity:0.1"><path d="M99.5,139.56v8.84A6.5,6.5,0,0,1,93,154.88H65.61V146H93A6.5,6.5,0,0,0,99.5,139.56Z"></path></g><path d="M97.49,99.13A6.48,6.48,0,0,1,104,105.5,6.58,6.58,0,0,1,97.49,112H65.61v21.2H93A6.43,6.43,0,1,1,93,146H65.61v21.32H97.49a6.43,6.43,0,1,1,0,12.85H59.38c-.23,0-.23-.11-.23-.11a6.27,6.27,0,0,1-6.59-6.26V105.5A6.33,6.33,0,0,1,59,99.13H97.49Z" style="fill:#FFC727"></path><path d="M104,173.84v8.84a6.56,6.56,0,0,1-6.47,6.38H59.37c-.22,0-.22-.11-.22-.11a6.27,6.27,0,0,1-6.59-6.27v-8.84a6.26,6.26,0,0,0,6.59,6.25s0,.13.22.13H97.49A6.57,6.57,0,0,0,104,173.84Z" style="fill:#FFC727"></path><g style="opacity:0.1"><path d="M104,173.84v8.84a6.56,6.56,0,0,1-6.47,6.38H59.37c-.22,0-.22-.11-.22-.11a6.27,6.27,0,0,1-6.59-6.27v-8.84a6.26,6.26,0,0,0,6.59,6.25s0,.13.22.13H97.49A6.57,6.57,0,0,0,104,173.84Z"></path></g><path d="M170.65,139.56v8.84a27.77,27.77,0,0,0-28-27.58h-7.3V112h7.3A27.77,27.77,0,0,1,170.65,139.56Z" style="fill:#FFC727"></path><g style="opacity:0.1"><path d="M170.65,139.56v8.84a27.77,27.77,0,0,0-28-27.58h-7.3V112h7.3A27.77,27.77,0,0,1,170.65,139.56Z"></path></g><path d="M142.66,99.13c22.7,0,41.05,18.18,41.05,40.42a40.83,40.83,0,0,1-41.05,40.66H128.78a6.4,6.4,0,0,1-6.47-6.37V105.5a6.33,6.33,0,0,1,6.47-6.37Zm0,68.23a27.69,27.69,0,1,0,0-55.38h-7.3v55.38h7.3" style="fill:#FFC727"></path><path d="M183.71,139.56v8.84a40.83,40.83,0,0,1-41.05,40.66H128.78a6.4,6.4,0,0,1-6.47-6.38v-8.84a6.41,6.41,0,0,0,6.47,6.38h13.88A40.84,40.84,0,0,0,183.71,139.56Z" style="fill:#FFC727"></path><g style="opacity:0.1"><path d="M183.71,139.56v8.84a40.83,40.83,0,0,1-41.05,40.66H128.78a6.4,6.4,0,0,1-6.47-6.38v-8.84a6.41,6.41,0,0,0,6.47,6.38h13.88A40.84,40.84,0,0,0,183.71,139.56Z"></path></g><path d="M257.86,99.13a6.34,6.34,0,0,1,6.48,6.37v41.24c0,18.42-15.18,33.47-34,33.47a33.68,33.68,0,0,1-34-33.47V105.5a6.33,6.33,0,0,1,6.47-6.37,6.51,6.51,0,0,1,6.6,6.37v41.24a20.94,20.94,0,0,0,41.87,0V105.5A6.43,6.43,0,0,1,257.86,99.13Z" style="fill:#FFC727"></path><path d="M264.34,146.74v8.84c0,18.42-15.18,33.48-34,33.48a33.68,33.68,0,0,1-34-33.48v-8.84a33.68,33.68,0,0,0,34,33.47C249.16,180.21,264.34,165.16,264.34,146.74Z" style="fill:#FFC727"></path><g style="opacity:0.1"><path d="M264.34,146.74v8.84c0,18.42-15.18,33.48-34,33.48a33.68,33.68,0,0,1-34-33.48v-8.84a33.68,33.68,0,0,0,34,33.47C249.16,180.21,264.34,165.16,264.34,146.74Z"></path></g><path d="M349.44,111.1v8.84a6.76,6.76,0,0,1-1.32,4,7.07,7.07,0,0,1-5.47,2.56,6.43,6.43,0,0,1-3.93-1.29,29.63,29.63,0,0,0-18.94-6.37,31.36,31.36,0,0,0-21.17,8.34A28.33,28.33,0,0,0,290,147.36v-8.84a28.33,28.33,0,0,1,8.59-20.16A31.36,31.36,0,0,1,319.78,110a29.68,29.68,0,0,1,18.94,6.36,6.38,6.38,0,0,0,3.93,1.3,7.07,7.07,0,0,0,5.47-2.56A6.78,6.78,0,0,0,349.44,111.1Z" style="fill:#FFC727"></path><g style="opacity:0.1"><path d="M349.44,111.1v8.84a6.76,6.76,0,0,1-1.32,4,7.07,7.07,0,0,1-5.47,2.56,6.43,6.43,0,0,1-3.93-1.29,29.63,29.63,0,0,0-18.94-6.37,31.36,31.36,0,0,0-21.17,8.34A28.33,28.33,0,0,0,290,147.36v-8.84a28.33,28.33,0,0,1,8.59-20.16A31.36,31.36,0,0,1,319.78,110a29.68,29.68,0,0,1,18.94,6.36,6.38,6.38,0,0,0,3.93,1.3,7.07,7.07,0,0,0,5.47-2.56A6.78,6.78,0,0,0,349.44,111.1Z"></path></g><path d="M349.44,166v8.84A6.54,6.54,0,0,1,347,180a44.42,44.42,0,0,1-27.17,9c-23.52,0-43-18.65-43.17-41.7v-8.84c.12,23,19.65,41.69,43.17,41.69a44.41,44.41,0,0,0,27.17-9A6.57,6.57,0,0,0,349.44,166Z" style="fill:#FFC727"></path><g style="opacity:0.1"><path d="M349.44,166v8.84A6.54,6.54,0,0,1,347,180a44.42,44.42,0,0,1-27.17,9c-23.52,0-43-18.65-43.17-41.7v-8.84c.12,23,19.65,41.69,43.17,41.69a44.41,44.41,0,0,0,27.17-9A6.57,6.57,0,0,0,349.44,166Z"></path></g><path d="M319.78,96.81a44.41,44.41,0,0,1,27.17,9,6.78,6.78,0,0,1,1.17,9.27,7,7,0,0,1-5.47,2.56,6.4,6.4,0,0,1-3.93-1.28A29.62,29.62,0,0,0,319.78,110a31.39,31.39,0,0,0-21.17,8.35A28.31,28.31,0,0,0,290,138.52a27.94,27.94,0,0,0,8.59,20.15A31.38,31.38,0,0,0,319.78,167a29.83,29.83,0,0,0,18.94-6.38,6.61,6.61,0,0,1,3.88-1.2,7.23,7.23,0,0,1,5.52,2.49,6.76,6.76,0,0,1-1.17,9.26,44.41,44.41,0,0,1-27.17,9c-23.52,0-43-18.65-43.17-41.69C276.73,115.58,296.26,96.92,319.78,96.81Z" style="fill:#FFC727"></path><polygon points="404.22 148.36 404.22 157.2 394.7 132.3 385.17 157.2 385.17 148.36 394.7 123.45 404.22 148.36" style="fill:#FFC727"></polygon><g style="opacity:0.1"><polygon points="404.22 148.36 404.22 157.2 394.7 132.3 385.17 157.2 385.17 148.36 394.7 123.45 404.22 148.36"></polygon></g><path d="M427.3,173.74v8.85a6.49,6.49,0,0,1-4.25,6.11,6,6,0,0,1-2.23.36,6.32,6.32,0,0,1-6-4.06L409.05,170H380.47L374.69,185a6.57,6.57,0,0,1-6.11,4.06,6.38,6.38,0,0,1-6.49-6.47v-8.85a6.5,6.5,0,0,0,4.26,6.12,7,7,0,0,0,2.23.36,6.57,6.57,0,0,0,6.11-4.06l5.78-15.06h28.58l5.77,15.06a6.32,6.32,0,0,0,6,4.06,6.43,6.43,0,0,0,2.23-.36A6.5,6.5,0,0,0,427.3,173.74Z" style="fill:#FFC727"></path><g style="opacity:0.1"><path d="M427.3,173.74v8.85a6.49,6.49,0,0,1-4.25,6.11,6,6,0,0,1-2.23.36,6.32,6.32,0,0,1-6-4.06L409.05,170H380.47L374.69,185a6.57,6.57,0,0,1-6.11,4.06,6.38,6.38,0,0,1-6.49-6.47v-8.85a6.5,6.5,0,0,0,4.26,6.12,7,7,0,0,0,2.23.36,6.57,6.57,0,0,0,6.11-4.06l5.78-15.06h28.58l5.77,15.06a6.32,6.32,0,0,0,6,4.06,6.43,6.43,0,0,0,2.23-.36A6.5,6.5,0,0,0,427.3,173.74Z"></path></g><path d="M426.92,171.53a6.51,6.51,0,0,1-3.87,8.33,6.62,6.62,0,0,1-8.23-3.7l-5.77-15.06H380.47l-5.77,15.06a6.59,6.59,0,0,1-6.12,4.05,6.69,6.69,0,0,1-2.23-.35,6.53,6.53,0,0,1-3.88-8.33l26-68.23a6.61,6.61,0,0,1,6-4.06H395a6.5,6.5,0,0,1,6,4.06Zm-41.75-23.17h19.06l-9.53-24.9-9.53,24.9" style="fill:#FFC727"></path></g><g id="freepik--Books--inject-67"><rect x="187.2" y="351.25" width="270.17" height="28.61" style="fill:#FFC727"></rect><rect x="187.2" y="351.25" width="270.17" height="28.61" style="fill:#fff;opacity:0.6000000000000001"></rect><rect x="406.41" y="351.25" width="26.4" height="28.61" transform="translate(839.22 731.1) rotate(180)" style="fill:#FFC727"></rect><rect x="385.61" y="351.25" width="11.02" height="28.61" transform="translate(782.23 731.1) rotate(180)" style="fill:#FFC727"></rect><rect x="211.24" y="351.25" width="26.4" height="28.61" transform="translate(448.88 731.1) rotate(180)" style="fill:#FFC727"></rect><polygon points="440.7 202.93 506.77 441.77 543.23 432.46 477.16 193.62 440.7 202.93" style="fill:#455a64"></polygon><polygon points="494.43 397.18 500.89 420.51 537.35 411.2 530.89 387.87 494.43 397.18" style="fill:#FFC727"></polygon><polygon points="446.71 224.64 453.16 247.98 489.62 238.67 483.16 215.33 446.71 224.64" style="fill:#FFC727"></polygon><rect x="191.93" y="421.47" width="277.88" height="20.29" style="fill:#FFC727"></rect><rect x="253.87" y="421.47" width="11.33" height="20.29" style="fill:#a6a6a6"></rect><rect x="235.07" y="421.47" width="11.33" height="20.29" style="fill:#a6a6a6"></rect><rect x="430.75" y="421.47" width="11.33" height="20.29" style="fill:#a6a6a6"></rect><rect x="411.95" y="421.47" width="11.33" height="20.29" style="fill:#a6a6a6"></rect><rect x="199.03" y="320.98" width="168.19" height="30.28" style="fill:#455a64"></rect><rect x="367.03" y="320.98" width="100.11" height="30.28" style="fill:#37474f"></rect><rect x="199.03" y="324.12" width="164.47" height="24" style="fill:#fff"></rect><path d="M209.67,343.19q19.23.26,38.46.35l38.46.11,38.45-.11q19.23-.09,38.46-.35-19.23-.27-38.46-.36l-38.45-.11-38.46.11Q228.9,342.92,209.67,343.19Z" style="fill:#dbdbdb"></path><path d="M209.67,338.48q19.23.25,38.46.35l38.46.11,38.45-.11q19.23-.09,38.46-.35-19.23-.25-38.46-.36l-38.45-.1-38.46.1Q228.9,338.23,209.67,338.48Z" style="fill:#dbdbdb"></path><path d="M209.67,333.77q19.23.25,38.46.35l38.46.11,38.45-.1q19.23-.11,38.46-.36-19.23-.25-38.46-.36l-38.45-.1-38.46.11Q228.9,333.51,209.67,333.77Z" style="fill:#dbdbdb"></path><path d="M209.67,329.06q19.23.26,38.46.36l38.46.1,38.45-.1q19.23-.1,38.46-.36-19.23-.26-38.46-.35l-38.45-.11-38.46.11Q228.9,328.8,209.67,329.06Z" style="fill:#dbdbdb"></path><polygon points="350.22 374.64 338.76 362.54 327.3 374.64 327.3 343.29 329.75 338.48 352.67 338.48 350.22 343.29 350.22 374.64" style="fill:#FFC727"></polygon><polygon points="490.04 239.71 525.6 368.07 545.88 441.26 565.45 436.25 545.17 363.06 509.61 234.7 490.04 239.71" style="fill:#FFC727"></polygon><polygon points="490.04 239.71 525.6 368.07 545.88 441.26 565.45 436.25 545.17 363.06 509.61 234.7 490.04 239.71" style="opacity:0.1"></polygon><polygon points="543.14 363.59 507.57 235.22 492.06 239.19 527.63 367.55 543.14 363.59" style="fill:#fff"></polygon><path d="M497.56,246.68q4,15.06,8.08,30.08l8.25,30,8.38,30q4.23,15,8.55,30-4-15.06-8.09-30.07l-8.24-30-8.39-30Q501.89,261.64,497.56,246.68Z" style="fill:#dbdbdb"></path><path d="M500.6,245.9q4,15.06,8.09,30.08l8.24,30,8.39,30q4.21,15,8.54,30-4-15-8.08-30.07l-8.25-30-8.39-30Q504.92,260.88,500.6,245.9Z" style="fill:#dbdbdb"></path><path d="M503.64,245.13q4,15,8.09,30.07l8.24,30,8.39,30q4.21,15,8.54,29.95-4-15-8.08-30.07l-8.25-30-8.38-30Q508,260.09,503.64,245.13Z" style="fill:#dbdbdb"></path><path d="M506.68,244.35q4,15,8.09,30.07l8.25,30,8.38,30q4.22,15,8.55,29.95-4-15-8.09-30.07l-8.25-30-8.38-30Q511,259.32,506.68,244.35Z" style="fill:#dbdbdb"></path><rect x="178.05" y="379.85" width="161.94" height="41.62" style="fill:#37474f"></rect><rect x="339.98" y="379.85" width="110.28" height="41.62" style="fill:#263238"></rect><rect x="178.05" y="384.17" width="157" height="32.98" style="fill:#fff"></rect><path d="M188.21,410.37q18.36.25,36.71.35l36.71.11,36.71-.1q18.36-.11,36.71-.36-18.35-.25-36.71-.36l-36.71-.1-36.71.11Q206.56,410.11,188.21,410.37Z" style="fill:#dbdbdb"></path><path d="M188.21,403.9q18.36.25,36.71.35l36.71.11,36.71-.11q18.36-.09,36.71-.35-18.35-.25-36.71-.36l-36.71-.1-36.71.1Q206.56,403.65,188.21,403.9Z" style="fill:#dbdbdb"></path><path d="M188.21,397.43q18.36.26,36.71.35l36.71.11,36.71-.11q18.36-.09,36.71-.35-18.35-.26-36.71-.36l-36.71-.1-36.71.1Q206.56,397.17,188.21,397.43Z" style="fill:#dbdbdb"></path><path d="M188.21,391q18.36.26,36.71.35l36.71.11,36.71-.11q18.36-.09,36.71-.35-18.35-.25-36.71-.36l-36.71-.1-36.71.1Q206.56,390.71,188.21,391Z" style="fill:#dbdbdb"></path><rect x="157.06" y="292.74" width="290.32" height="28.36" transform="translate(604.44 613.84) rotate(180)" style="fill:#c7c7c7"></rect><rect x="308.42" y="298.53" width="111.66" height="17.02" transform="translate(728.51 614.09) rotate(180)" style="fill:#fff"></rect><rect x="176.66" y="298.53" width="104.82" height="2.63" transform="translate(458.14 599.7) rotate(180)" style="fill:#fff"></rect><rect x="176.66" y="305.61" width="104.82" height="2.63" transform="translate(458.14 613.84) rotate(180)" style="fill:#fff"></rect><rect x="176.66" y="312.68" width="104.82" height="2.63" transform="translate(458.14 627.99) rotate(180)" style="fill:#fff"></rect><rect x="205.28" y="253.64" width="239.88" height="38.97" style="fill:#FFC727"></rect><rect x="397.38" y="253.64" width="22.36" height="38.97" style="fill:#263238"></rect><rect x="374.03" y="253.64" width="8.67" height="38.97" style="fill:#263238"></rect><ellipse cx="293.06" cy="273.13" rx="54.81" ry="10.89" style="fill:#fff"></ellipse><rect x="295.49" y="231.9" width="153.38" height="21.74" transform="translate(744.36 485.55) rotate(180)" style="fill:#a6a6a6"></rect><rect x="208.04" y="231.9" width="87.45" height="21.74" transform="translate(503.53 485.55) rotate(180)" style="fill:#a6a6a6"></rect><rect x="295.49" y="234.16" width="153.38" height="17.23" transform="translate(744.36 485.55) rotate(180)" style="fill:#fff"></rect><path d="M439,237.7q-17.94-.18-35.87-.25l-35.86-.08-35.87.08q-17.93.06-35.86.25,17.92.2,35.86.26l35.87.07,35.86-.07Q421,237.89,439,237.7Z" style="fill:#dbdbdb"></path><path d="M439,241.08q-17.94-.18-35.87-.25l-35.86-.08-35.87.08q-17.93.06-35.86.25,17.92.19,35.86.26l35.87.07,35.86-.07Q421,241.27,439,241.08Z" style="fill:#dbdbdb"></path><path d="M439,244.46q-17.94-.18-35.87-.25l-35.86-.08-35.87.08q-17.93.06-35.86.25,17.92.19,35.86.26l35.87.07,35.86-.07Q421,244.65,439,244.46Z" style="fill:#dbdbdb"></path><path d="M439,247.84q-17.94-.18-35.87-.25l-35.86-.08-35.87.08q-17.93.06-35.86.25,17.92.19,35.86.26l35.87.07,35.86-.07Q421,248,439,247.84Z" style="fill:#dbdbdb"></path><polygon points="322.65 264.08 329.94 256.39 337.23 264.08 337.23 244.14 335.67 241.08 321.09 241.08 322.65 244.14 322.65 264.08" style="fill:#455a64"></polygon></g><g id="freepik--light-bulb--inject-67"><path d="M622.22,145.63c-3.4,29.15-22.13,34.51-25.26,42.29-1.68,4.2-3.9,14.9-3.9,14.9H562.61s-2.2-10.7-3.9-14.91c-3.12-7.77-21.86-13.13-25.26-42.28-2.24-19.15,12.15-49.39,44.38-49.4S624.44,126.48,622.22,145.63Z" style="fill:#FFC727"></path><rect x="565.34" y="155.95" width="1" height="49.28" transform="translate(-23.53 106.91) rotate(-10.57)" style="fill:#fff"></rect><rect x="565.21" y="180.09" width="49.28" height="1" transform="translate(303.98 727.22) rotate(-79.41)" style="fill:#fff"></rect><path d="M577.84,172.34c-2.34,0-4.7-1.87-6.67-5.27-.12-.21-.24-.43-.35-.65a3.67,3.67,0,0,1-2.65,1.54c-4.45,0-6.25-9.3-6.33-9.69l.49-.1c0,.1,1.8,9.29,5.84,9.29a3.36,3.36,0,0,0,2.4-1.52c-2.15-4.28-2.94-9.32-1.7-11.46a2.2,2.2,0,0,1,2-1.16h0c1.92,0,3,1.55,3,4.26a15.85,15.85,0,0,1-2.73,8.41c.15.28.3.56.46.83,1.08,1.87,3.33,5,6.23,5,1.94,0,3.88-1.51,5.47-4.26q.23-.39.42-.78a8.85,8.85,0,0,1-1.12-1.54c-1.87-3.24-2.26-8-.85-10.47a2.67,2.67,0,0,1,2.34-1.48,2,2,0,0,1,1.8,1.12c1.34,2.32.58,7.9-1.56,12.27a4.57,4.57,0,0,0,3.22,1.38h0c3.46,0,6.07-9.24,6.09-9.33l.48.13c-.11.4-2.73,9.7-6.57,9.7h0a5,5,0,0,1-3.46-1.41q-.17.33-.36.66c-1.19,2-3.17,4.51-5.9,4.51Zm6.26-18.53a2.16,2.16,0,0,0-1.91,1.23c-1.3,2.27-.91,6.92.85,10a8.8,8.8,0,0,0,.93,1.31c2-4.17,2.73-9.51,1.5-11.64A1.52,1.52,0,0,0,584.1,153.81Zm-13.24,0h0a1.7,1.7,0,0,0-1.56.91c-1.12,1.94-.36,6.71,1.61,10.76a15.29,15.29,0,0,0,2.47-7.91C573.38,156.18,573.05,153.82,570.86,153.82Z" style="fill:#fff"></path><rect x="559.06" y="201.52" width="37.58" height="7.34" style="fill:#263238"></rect><rect x="559.06" y="210.05" width="37.58" height="7.34" style="fill:#263238"></rect><rect x="559.06" y="218.58" width="37.58" height="7.34" style="fill:#263238"></rect><path d="M540.85,136.32c.62-14.92,11.21-31.3,27-32.74-14.09,5.64-22.11,19-27,32.74Z" style="fill:#fff"></path><path d="M578.47,86.82a31.76,31.76,0,0,1,0-11.42,32,32,0,0,1,0,11.42Z" style="fill:#263238"></path><path d="M552.25,93.5a31.74,31.74,0,0,1-5.66-9.91,31.93,31.93,0,0,1,5.66,9.91Z" style="fill:#263238"></path><path d="M532.89,112.4a31.71,31.71,0,0,1-9.86-5.75,31.83,31.83,0,0,1,9.86,5.75Z" style="fill:#263238"></path><path d="M525.57,138.44a32,32,0,0,1-11.42,0,31.76,31.76,0,0,1,11.42,0Z" style="fill:#263238"></path><path d="M532.25,164.66a31.73,31.73,0,0,1-9.91,5.67,31.88,31.88,0,0,1,9.91-5.67Z" style="fill:#263238"></path><path d="M622.78,165.76a31.91,31.91,0,0,1,9.86,5.75,31.63,31.63,0,0,1-9.86-5.75Z" style="fill:#263238"></path><path d="M630.1,139.72a31.93,31.93,0,0,1,11.41,0,31.71,31.71,0,0,1-11.41,0Z" style="fill:#263238"></path><path d="M623.42,113.5a31.8,31.8,0,0,1,9.9-5.67,31.71,31.71,0,0,1-9.9,5.67Z" style="fill:#263238"></path><path d="M604.52,94.14a31.88,31.88,0,0,1,5.75-9.87,32.07,32.07,0,0,1-5.75,9.87Z" style="fill:#263238"></path></g><g id="freepik--Pencil--inject-67"><path d="M275.83,442.13s23.06,2.41,23-18.66S275.7,405,275.7,405Z" style="fill:#ff9abb"></path><rect x="171.25" y="336.33" width="37.16" height="174.86" transform="translate(-233.28 615.03) rotate(-90.2)" style="fill:#455a64"></rect><g style="opacity:0.1"><path d="M107.66,412.74c52.61-.43,111.64-.57,164.26-.39-52.62.44-111.65.57-164.26.39Z"></path><path d="M107.68,420.11c52.62-.43,111.65-.57,164.27-.39-52.62.43-111.65.57-164.27.39Z"></path><path d="M107.71,427.48c52.61-.43,111.64-.58,164.26-.39-52.62.43-111.64.57-164.26.39Z"></path><path d="M107.73,434.84c52.62-.43,111.65-.57,164.27-.39-52.62.44-111.65.58-164.27.39Z"></path></g><rect x="251.72" y="418.3" width="43.39" height="10.53" transform="translate(-149.21 698.43) rotate(-90.2)" style="fill:#c7c7c7"></rect><rect x="240.08" y="418.34" width="43.39" height="10.53" transform="translate(-160.93 686.83) rotate(-90.2)" style="fill:#c7c7c7"></rect><path d="M102.34,405.37,75.65,419.45l-8.81,4.61,8.85,4.62,26.78,13.89,5.38-3.78s-5.32-3.57-5.41-3.66l5.39-3.78s-5.33-3.57-5.41-3.66L107.8,424s-5.33-3.66-5.41-3.75l5.39-3.69s-5.33-3.66-5.41-3.75l5.38-3.69S102.42,405.46,102.34,405.37Z" style="fill:#FFC727"></path><path d="M102.34,405.37,75.65,419.45l-8.81,4.61,8.85,4.62,26.78,13.89,5.38-3.78s-5.32-3.57-5.41-3.66l5.39-3.78s-5.33-3.57-5.41-3.66L107.8,424s-5.33-3.66-5.41-3.75l5.39-3.69s-5.33-3.66-5.41-3.75l5.38-3.69S102.42,405.46,102.34,405.37Z" style="fill:#fff;opacity:0.8"></path><polygon points="75.65 419.45 66.84 424.06 75.69 428.69 75.65 419.45" style="fill:#263238"></polygon></g><g id="freepik--character-2--inject-67"><path d="M697.46,441.31c-2.32.85-69.42,2.94-72,1.4-.28-.17-2.06-10.07-2.94-17.74,0-.09-1.85-1.33-4.62-3.16-8.81-5.79-27.13-17.52-27.13-17.52l33.87-28.63,32,32.33,1.52,1.54,6.79,6.86s27.23,13.4,29.92,15.39S699.79,440.46,697.46,441.31Z" style="fill:#ad6359"></path><path d="M697.46,441.31c-2.32.85-69.42,2.94-72,1.4-.28-.17-2.06-10.07-2.94-17.74,0-.09-1.85-1.33-4.62-3.16l40.26-12.28,6.79,6.86s27.23,13.4,29.92,15.39S699.79,440.46,697.46,441.31Z" style="fill:#fff"></path><path d="M698.32,441.39c-2.37.86-71,2.65-73.61,1.07-1-.6-1.54-5.41-2.22-17.49l43.64-7.83s26.82,12.45,29.55,14.5S700.7,440.53,698.32,441.39Z" style="fill:#FFC727"></path><path d="M690.4,442c-18.62.85-63.54,1.76-65.69.49-1-.59-1.54-5.41-2.22-17.49l26.57-4.77C657.83,424.63,680,436.4,690.4,442Z" style="opacity:0.1"></path><path d="M697.27,438.67c-11.51,0-57.9,1.17-69.27,2.07-.09,0-.09.07,0,.07,11.4.23,57.79-1.3,69.27-1.95C697.51,438.85,697.51,438.67,697.27,438.67Z" style="fill:#263238"></path><path d="M691.21,429.29a9.26,9.26,0,0,0-6.81,3,9,9,0,0,0-2.41,6.21.07.07,0,0,0,.14,0,10.68,10.68,0,0,1,9.08-9.05A.07.07,0,0,0,691.21,429.29Z" style="fill:#263238"></path><path d="M670.88,419.56c-4.6.05-9.9,1.82-12.66,5.65-.1.15.11.3.24.23A63.84,63.84,0,0,1,671,420.12.29.29,0,0,0,670.88,419.56Z" style="fill:#263238"></path><path d="M674.47,420.85c-4.61.06-9.9,1.82-12.66,5.66-.11.14.11.29.24.22a64.45,64.45,0,0,1,12.51-5.32A.29.29,0,0,0,674.47,420.85Z" style="fill:#263238"></path><path d="M678.06,422.14c-4.61.06-9.9,1.82-12.66,5.66-.11.15.11.3.24.22a63.54,63.54,0,0,1,12.51-5.31A.29.29,0,0,0,678.06,422.14Z" style="fill:#263238"></path><path d="M681.64,423.43c-4.6.06-9.89,1.82-12.65,5.66-.11.15.1.3.24.22A63.29,63.29,0,0,1,681.74,424,.29.29,0,0,0,681.64,423.43Z" style="fill:#263238"></path><path d="M630.65,429.74c-5.17.15-4.94,8.17.23,8S635.82,429.59,630.65,429.74Z" style="fill:#fff"></path><path d="M675.53,407.15c-2.38-1.87-5.26.09-6.65,2.14A24.09,24.09,0,0,0,665,421.16a.12.12,0,0,0,.15.13.56.56,0,0,0,.83.35c3.22-2.35,7-4.47,9.35-7.74C676.74,412,677.78,408.92,675.53,407.15Zm-5.39,9.93c-1.55,1.19-3.16,2.3-4.66,3.55.76-2.31,1.42-4.64,2.41-6.88a25.18,25.18,0,0,1,1.6-3.15c1-1.54,5.38-5.51,6-.51C675.78,412.84,672,415.65,670.14,417.08Z" style="fill:#263238"></path><path d="M653.62,423.16c4,.51,8.13-.73,12-1.45a.56.56,0,0,0,.32-.84.13.13,0,0,0,0-.2,24.29,24.29,0,0,0-11.28-5.37c-2.43-.4-5.84.34-6.13,3.35C648.33,421.5,651.27,422.87,653.62,423.16Zm-2.84-2.54c-3.22-3.87,2.7-4.34,4.48-4a23.83,23.83,0,0,1,3.38,1,70.89,70.89,0,0,1,6.66,3c-1.95.23-3.86.63-5.8.93C657.19,421.94,652.55,422.75,650.78,420.62Z" style="fill:#263238"></path><path d="M648.36,393l-4.89,6.12L619,429.61s-36.57-24.17-47.34-32.21c-.35-.26-40,30.49-69.62,37.4-22.74,5.3-38.72-2.66-48.65-23.64l37.15-18.45c31.07-17.06,65.75-43.57,87.5-41.9C601.71,352.61,648.36,393,648.36,393Z" style="fill:#37474f"></path><path d="M640.18,391.2c-5,5.95-3.67,4.17-8.63,10.18-2.43,2.94-14.68,17.67-16.49,20.79,0,.07.06.15.12.1,2.68-2.42,14.6-17.42,17-20.4,4.85-6.09,3.39-4.39,8.18-10.54A.1.1,0,1,0,640.18,391.2Z" style="fill:#263238"></path><path d="M639.58,404,619,429.62s-36.57-24.18-47.34-32.21c-.35-.27-40,30.48-69.62,37.39-22.74,5.3-38.72-2.66-48.65-23.64l37.15-18.45c4.11-2.26,8.29-4.69,12.49-7.19C536.62,390.12,610.12,400,639.58,404Z" style="fill:#263238"></path><path d="M687.71,442c-2.33.83-69.44,2.34-72,.78-.27-.18-2-10.09-2.78-17.77,0-.08-1.84-1.34-4.6-3.19-8.76-5.87-27-17.76-27-17.76l33-26.37,32.84,30.64,1.5,1.55,6.74,6.92s27.11,13.63,29.78,15.64S690,441.12,687.71,442Z" style="fill:#ad6359"></path><path d="M687.71,442c-2.33.83-69.44,2.34-72,.78-.27-.18-2-10.09-2.78-17.77,0-.08-1.84-1.34-4.6-3.19l40.36-11.94,6.74,6.92s27.11,13.63,29.78,15.64S690,441.12,687.71,442Z" style="fill:#fff"></path><path d="M688.57,442c-2.38.85-71,2-73.61.44-1-.61-1.5-5.42-2.07-17.51l43.7-7.45S683.31,430.2,686,432.27,691,441.2,688.57,442Z" style="fill:#FFC727"></path><path d="M687.54,439.32c-11.5-.08-57.9.67-69.28,1.47-.09,0-.09.07,0,.07,11.4.33,57.79-.8,69.28-1.35C687.79,439.49,687.78,439.32,687.54,439.32Z" style="fill:#263238"></path><path d="M681.56,429.88a9.25,9.25,0,0,0-6.83,2.93,9,9,0,0,0-2.46,6.18c0,.07.13.07.14,0a10.67,10.67,0,0,1,9.15-9A.08.08,0,1,0,681.56,429.88Z" style="fill:#263238"></path><path d="M661.32,420c-4.6,0-9.91,1.73-12.7,5.54-.11.15.1.3.23.23a63.87,63.87,0,0,1,12.56-5.21A.29.29,0,0,0,661.32,420Z" style="fill:#263238"></path><path d="M664.9,421.3c-4.61,0-9.91,1.73-12.71,5.55-.11.14.11.3.24.22A64.23,64.23,0,0,1,665,421.86.29.29,0,0,0,664.9,421.3Z" style="fill:#263238"></path><path d="M668.47,422.62c-4.6,0-9.91,1.74-12.7,5.55-.11.15.1.3.24.23a63.19,63.19,0,0,1,12.55-5.21A.29.29,0,0,0,668.47,422.62Z" style="fill:#263238"></path><path d="M672.05,423.94c-4.6,0-9.91,1.74-12.7,5.55-.11.15.1.3.23.23a63.27,63.27,0,0,1,12.56-5.21A.29.29,0,0,0,672.05,423.94Z" style="fill:#263238"></path><path d="M621,429.81c-5.16.11-5,8.13.16,8S626.17,429.71,621,429.81Z" style="fill:#fff"></path><path d="M666.08,407.61c-2.37-1.89-5.27.05-6.67,2.08a24.06,24.06,0,0,0-4,11.84c0,.1.07.13.14.13a.56.56,0,0,0,.84.35c3.23-2.32,7-4.4,9.41-7.65C667.25,412.47,668.31,409.4,666.08,407.61Zm-5.48,9.88c-1.56,1.18-3.17,2.28-4.69,3.52.78-2.31,1.46-4.64,2.47-6.87A25.13,25.13,0,0,1,660,411c1-1.54,5.42-5.46,6-.46C666.28,413.3,662.47,416.08,660.6,417.49Z" style="fill:#263238"></path><path d="M644,423.43c4,.55,8.13-.66,12.06-1.34a.56.56,0,0,0,.33-.85.12.12,0,0,0,0-.19,24.19,24.19,0,0,0-11.23-5.47c-2.43-.42-5.85.29-6.16,3.3C638.75,421.73,641.69,423.12,644,423.43Zm-2.82-2.57c-3.18-3.89,2.73-4.31,4.51-3.93a26.4,26.4,0,0,1,3.38,1c2.3.84,4.43,2,6.63,3-2,.21-3.86.59-5.8.88C647.61,422.24,643,423,641.21,420.86Z" style="fill:#263238"></path><path d="M667.39,423c-2.69-1.51-5.37-3-8.11-4.47a15,15,0,0,1-3.58-2.35c-1.11-1.06-2.16-2.18-3.25-3.27-4.4-4.39-8.78-8.8-13.22-13.16-2.4-2.35-4.78-4.74-7.16-7.12-.05-.06-.15,0-.11.09.15.24,4.14,4.7,6,6.72,2.16,2.27,4.36,4.5,6.55,6.74l6.53,6.67q1.63,1.67,3.3,3.33a12.89,12.89,0,0,0,3.36,2.51c3.14,1.58,6.35,3,9.54,4.48C667.41,423.25,667.51,423.09,667.39,423Z" style="fill:#263238"></path><path d="M447,397.85s-3.73,27.13,10.85,38c10.5,7.84,23.84,8.07,35.28,5.92,31.63-5.93,56.89-45.57,67.38-48.09,5.38-1.29,49.95,39,49.95,39l31.75-33.57c-8.76-7-61.32-55.59-86.72-54.47-17.38.77-59.85,38.84-60.93,38.46-1.76-.61-9.64-4-9.64-4Z" style="fill:#37474f"></path><path d="M635.31,396c-4,3.67-7.71,7.65-11.46,11.55s-7.46,7.78-11.12,11.73c-2.08,2.24-4.14,4.49-6.14,6.8-.05.06,0,.13.09.08,3.94-3.74,7.71-7.64,11.48-11.54s7.45-7.78,11.13-11.73c2.08-2.23,4.18-4.46,6.14-6.79A.08.08,0,0,0,635.31,396Z" style="fill:#263238"></path><path d="M473.15,392.53c-.06-.14-.28,0-.24.11a17.65,17.65,0,0,1-.87,12c-2,4.21-5.75,7.32-9.1,10.41-.32.3.13.8.49.58a35.86,35.86,0,0,0,6.06-4.94,17.56,17.56,0,0,0,4-5.78A15.43,15.43,0,0,0,473.15,392.53Z" style="fill:#263238"></path><path d="M495.26,385.82c-1-.69-2.07-1.3-3.1-1.95-2.44-1.53-4.9-3.06-7.4-4.49-.24-.14-.49.24-.26.4,1.77,1.23,3.59,2.38,5.4,3.55l2.79,1.78a16.23,16.23,0,0,1,2.64,1.77,1.26,1.26,0,0,1-.52,2.13,3.39,3.39,0,0,1-2.52-.11,30.78,30.78,0,0,1-5.14-2.85c-1-.59-2-1.19-3-1.77s-2.21-1.17-3.3-1.79c-.07,0-.14.07-.07.12,1,.73,2,1.52,3,2.26s2,1.45,3,2.16,2,1.32,3,1.94a9.07,9.07,0,0,0,2.77,1.23c1.59.35,4-.23,4.13-2.19A2.57,2.57,0,0,0,495.26,385.82Z" style="fill:#263238"></path><path d="M639.86,396.68c-2.18-2.06-4.48-4-6.75-6s-4.54-3.88-6.84-5.79c-4.61-3.84-9.27-7.63-14-11.29s-9.65-7.18-14.64-10.51-10-6.43-15.23-9.23c-2.63-1.41-5.29-2.76-8-4a82.21,82.21,0,0,0-8.14-3.33c-.75-.24-1.5-.48-2.24-.76-.11,0-.2.13-.08.17,1.38.55,2.73,1.22,4.09,1.83s2.67,1.22,4,1.85c2.67,1.26,5.32,2.6,7.92,4q7.86,4.21,15.35,9.08c5,3.25,9.87,6.7,14.62,10.3s9.51,7.32,14.16,11.12,9.2,7.62,13.83,11.39c.58.48,1.17.95,1.76,1.4A.18.18,0,1,0,639.86,396.68Z" style="fill:#263238"></path><path d="M608.22,421.76c-10.65-9.27-39.43-32.82-45.88-36.68a5.48,5.48,0,0,0-4.36-.52,11.77,11.77,0,0,0-4.07,2.78l-4.39,3.81-9,7.82c-5.64,4.9-11.23,9.84-16.93,14.67a132,132,0,0,1-16,11.95c-10.84,6.67-24.7,11.24-37.18,6.46a25.14,25.14,0,0,1-13.11-11.89c-2.89-5.4-4.27-11.48-5.22-17.48-.23-1.45-.42-2.91-.61-4.37a.06.06,0,1,0-.11,0c1.07,11.35,3.46,24.47,13.43,31.53,10.58,7.5,24.92,5.47,36,.32,12.44-5.77,22.67-15.33,32.91-24.24l17.91-15.57c1.44-1.26,2.86-2.57,4.35-3.77s3.27-2.14,5.08-1.19c6,3.15,45.54,35.5,46.94,36.62A.17.17,0,0,0,608.22,421.76Z" style="fill:#263238"></path><path d="M501.33,311.08A5,5,0,0,0,507,304a4.57,4.57,0,0,0,5.06-2.42,4.39,4.39,0,0,0-1.77-5.55s0,0,0,0a4.5,4.5,0,0,1,1.46,5.36,4,4,0,0,1-3.88,2.25,5.52,5.52,0,0,0,3.27-2.94,4.29,4.29,0,0,0-.9-4.64,6.31,6.31,0,0,0,2.07-5.25,4.28,4.28,0,0,0-3.06-3.54,4.78,4.78,0,0,0-4.56-7.5,4,4,0,0,0-3.15-6,2.7,2.7,0,0,0-.72-2.83,4.48,4.48,0,0,0-3.29-1.07,3.22,3.22,0,0,0-2.05-2.32,3,3,0,0,0-3.51,1.45,8,8,0,0,0-5.41-1.88,4.18,4.18,0,0,0-3.65,2.85,5.8,5.8,0,0,0-8.13,3,4.07,4.07,0,0,0-3.84,1.34,6,6,0,0,0-1.42,2.54,3.07,3.07,0,0,0-3.11,1.75,4,4,0,0,0,.13,3.45,2.35,2.35,0,0,1-.37,1,5.3,5.3,0,0,0-.52,5,3.63,3.63,0,0,0-.17,5.43,4.06,4.06,0,0,0,1.16,5.59,5.89,5.89,0,0,0-.34,4.92,3.41,3.41,0,0,0,2.89,2.41,2.09,2.09,0,0,0,1.21,2.49,5.19,5.19,0,0,0,1.09.37,4.46,4.46,0,0,1,1.41.38c.4.27.54.81.78,1.19a4.57,4.57,0,0,0,.59.78,5.37,5.37,0,0,0,6.69.8c.92,1.5,2.81,1.83,4.47,1.61a9.29,9.29,0,0,0,1.57-.41,2.38,2.38,0,0,1,1.42-.12c.31.08.6.23.91.32a3.71,3.71,0,0,0,2.89-.65C494.78,317.1,500.21,315.24,501.33,311.08ZM466.5,279.39a3.22,3.22,0,0,1,2.93-2.3l0,.16s-.42.15-.61.25a4.13,4.13,0,0,0-1,.68,4.24,4.24,0,0,0-1.21,2.12,4.5,4.5,0,0,0-.09,1.1v.13A4,4,0,0,1,466.5,279.39Zm29.16-10.73a3.11,3.11,0,0,0-3.51.56l-.08-.06c.8-1.06,1.82-1.81,3.27-1.3a2.69,2.69,0,0,1,1.74,2.07h0A3.44,3.44,0,0,0,495.66,268.66Zm-3.32,44.43,0,0a5.61,5.61,0,0,0,7.79-.43C498.15,315.16,495,316.16,492.34,313.09Z" style="fill:#263238"></path><path d="M483.51,326.72C487.77,344,498.08,371,507.2,370.81c8.33-.13,26.89-14.89,34.67-19.72s-9.67-23.9-14.13-20.81c-6.91,4.78-17.25,13.3-19,12.74-2.17-.69-4.94-6-17.36-21.84C486.3,314.72,481.69,319.34,483.51,326.72Z" style="fill:#ad6359"></path><path d="M536.1,322.93c3.67-1.29,7.77-3.07,11.84-3s7.46,5.46,7.46,7-1.54,11.14-5.61,11.14-1.62-7.37-1.77-8.22-.31-1.93-1.08-1.85-14.21,6.46-14.21,6.46Z" style="fill:#ad6359"></path><path d="M536.36,323.5c.23,0,11.15-4.31,15.22-4.23s7.46,5.45,7.46,7-1.54,11.15-5.61,11.15-1.62-7.38-1.77-8.23-.31-1.92-1.08-1.84-14.22,6.46-14.22,6.46Z" style="fill:#ad6359"></path><path d="M552,336.89a4.84,4.84,0,0,1-.67-2.4,8.48,8.48,0,0,1,.14-2.61,13.19,13.19,0,0,0,.5-2.24,4.51,4.51,0,0,0-.57-2.15c-.31-.57-.91-.38-1.43-.19a19,19,0,0,0-2.21,1c-.78.38-1.55.79-2.32,1.18a22.62,22.62,0,0,0-2.37,1.3c-.05,0,0,.14,0,.12a22.56,22.56,0,0,0,2.07-.93c.77-.37,1.55-.72,2.33-1.07s1.44-.69,2.18-1c.26-.11.77-.39,1.07-.32s.46.83.53,1.08a3.76,3.76,0,0,1-.14,2.2,12.18,12.18,0,0,0-.42,2.23,6.12,6.12,0,0,0,.17,2.13,8.56,8.56,0,0,0,1,1.75C552,337.05,552.1,337,552,336.89Z" style="fill:#263238"></path><path d="M523.44,334.19s11.29-10.29,13.64-12.33c4.71-4.1,24.57-12.21,27.34-12.51s3.76,5.38-9.71,11.28c-7.11,3.1-8.37,7.17-8.23,9.43s2.28,6.45,6.08,6.35,6.25-5.64,9.73-6.25,1.19,5.77-1.27,9.46a23.26,23.26,0,0,1-10.21,8c-3.28,1.23-13.43,5.6-13.43,5.6Z" style="fill:#ad6359"></path><path d="M557.26,333.74c-1.43,1.11-3,2.54-4.92,2.61s-3.21-1.19-4.11-2.77a7.19,7.19,0,0,1-1-5.24,8.87,8.87,0,0,1,2.6-4.26,21.58,21.58,0,0,1,5.14-3.41c.08-.05,0-.17-.08-.13-1.74.78-7.17,3-8.25,7.8a7.33,7.33,0,0,0,1.05,5.34c.84,1.51,2.07,3,3.9,3.12,2.24.18,4.17-1.64,5.78-3C557.44,333.74,557.34,333.68,557.26,333.74Z" style="fill:#263238"></path><path d="M523.44,332.75,540.33,359s-26.79,15-34.37,12.6-19-24.15-23.75-43.22,7-11.77,11.53-5.87S508.15,342,508.68,341.8,523.44,332.75,523.44,332.75Z" style="fill:#FFC727"></path><path d="M531.1,344.65a25.1,25.1,0,0,0-3.25,1.37,32.31,32.31,0,0,0-6.12,4.05c-.41.34-.81.68-1.2,1l-.21.17a124,124,0,0,0-9,9.34,119.45,119.45,0,0,1-8.67,8.91c-.15-.12-.32-.26-.47-.4a111.11,111.11,0,0,0,8.67-8.95,118.5,118.5,0,0,1,8.71-9.09l.19-.18c.51-.46,1-.9,1.55-1.33a33.33,33.33,0,0,1,6.25-4.13,27.91,27.91,0,0,1,3.19-1.34Zm6.16,9.55-.17-.27-.2-.29c-.08.09-.17.18-.24.27a2.77,2.77,0,0,0-.24.25c-1.28,1.38-2.52,2.78-3.77,4.17-2.65,2.95-5.32,5.89-8.23,8.54l1.68-.76c2.46-2.33,4.76-4.84,7-7.35,1.38-1.52,2.75-3.05,4.16-4.55Zm-.17-.27-.44,0a44.26,44.26,0,0,1-4.45-.38,82.25,82.25,0,0,1-11.67-2.42l-.76-.2-2-.57A116.26,116.26,0,0,0,503.23,347a37.22,37.22,0,0,0-7.46-.36,27.82,27.82,0,0,0-6.83,1.27l.2.42A27.93,27.93,0,0,1,495.8,347a37.19,37.19,0,0,1,7.38.28,115.08,115.08,0,0,1,14.47,3.3l1.93.51c.25.07.5.14.74.19a99.52,99.52,0,0,0,11.86,2.49c1.4.18,2.81.32,4.23.39a7.94,7.94,0,0,0,.85,0Zm-43.34-31.45c-2.89,1.14-5.78,2.24-8.74,3.08a2.44,2.44,0,0,1-.26.06c-.52.15-1,.28-1.54.41s-1,.22-1.46.32c.05.2.09.39.13.61.5-.09,1-.19,1.48-.31.66-.16,1.31-.34,2-.52a1.34,1.34,0,0,0,.26-.09,86.44,86.44,0,0,0,8.58-3ZM508,341.14a27.23,27.23,0,0,1-2.8-1,36.38,36.38,0,0,1-6.51-3.49,114.25,114.25,0,0,1-11.55-9.32L485.59,326l-.58-.48c-1.27-1.1-2.55-2.18-3.85-3.21a2.11,2.11,0,0,0,0,.25q1.81,1.48,3.57,3l.58.51c.54.46,1.07.94,1.61,1.41A115.66,115.66,0,0,0,498.46,337a36.8,36.8,0,0,0,6.55,3.58,26.63,26.63,0,0,0,3.62,1.24A3,3,0,0,1,508,341.14Zm20.34-.85c-.46.17-.94.31-1.41.44A37.61,37.61,0,0,1,512.27,342a26,26,0,0,1-3-.54l-.57.32a26.84,26.84,0,0,0,3.53.69,37.29,37.29,0,0,0,14.82-1.2c.54-.15,1.07-.31,1.6-.48Z" style="fill:#fff"></path><path d="M521.45,368.12c-6.11,2.49-12.1,4.3-15.23,3.51l-.27-.07c-7.57-2.43-19-24.15-23.74-43.22a29.59,29.59,0,0,1-1.09-7.84c0-.09,0-.18,0-.28s0-.3,0-.45a1,1,0,0,1,0-.18c0-.14,0-.28.06-.41Z" style="opacity:0.1"></path><path d="M530.9,356.39c-.53-.93-1.07-1.86-1.62-2.78-1.09-1.86-7.63-12.83-10.21-16.17-.07-.09-.21,0-.16.11,1.8,3.84,8.58,14.62,9.71,16.39l1.74,2.72c.6.91,1.29,1.74,1.88,2.65.06.09.21,0,.15-.08C531.85,358.31,531.43,357.32,530.9,356.39Z" style="fill:#263238"></path><path d="M445.19,401.18c.16.18,59-18.27,59.6-19,.86-1-8.88-55.79-16-64.83-1.51-1.93-11.34-5.51-16.32.05C453.09,339.06,444.62,400.55,445.19,401.18Z" style="fill:#FFC727"></path><path d="M503,369.21c-.72.67-1.45,1.3-2.21,1.93a42.61,42.61,0,0,1-8.32,5.42l-.46.21a34.4,34.4,0,0,1-4.18,1.68,27,27,0,0,1-7.34,1.36,32,32,0,0,1-7.44-.56,91.7,91.7,0,0,1-13.58-4l-.66-.24c-2.84-1-5.72-2-8.64-2.8,0-.06,0-.13,0-.19,2.93.8,5.82,1.77,8.69,2.76l.1,0,.67.23a88.69,88.69,0,0,0,13.45,3.92,31.76,31.76,0,0,0,7.35.49,26.5,26.5,0,0,0,7.21-1.42,33.82,33.82,0,0,0,3.54-1.4l.46-.22a41.46,41.46,0,0,0,8.73-5.69c.86-.7,1.68-1.42,2.47-2.17C502.94,368.74,503,369,503,369.21Zm1.34,8.13c-.69.1-1.4.17-2.1.21a32.48,32.48,0,0,1-7.36-.48c-.8-.16-1.61-.32-2.41-.51-.27-.05-.53-.12-.79-.19-3.73-.93-7.37-2.24-11-3.49a97.46,97.46,0,0,0-14.3-4.06c-.45-.09-.9-.15-1.36-.23l-.74-.09a41.54,41.54,0,0,0-12.74.16,4.86,4.86,0,0,0-.55.11,1.7,1.7,0,0,0-.1.37l.71-.13a41.58,41.58,0,0,1,12.5-.29c.24,0,.49.06.74.1.51.06,1,.14,1.5.23a86.76,86.76,0,0,1,14.26,4.06c3.5,1.23,7,2.52,10.63,3.48.26.07.52.13.79.18.92.24,1.87.46,2.82.63a32.45,32.45,0,0,0,7.43.56c.72,0,1.43-.1,2.14-.19Zm-6-30.78c-.88,0-1.75,0-2.63,0a28.17,28.17,0,0,0-7.33,1.43,37.13,37.13,0,0,0-12.8,7.59,85.12,85.12,0,0,0-9.95,11.1c-.47.59-.95,1.19-1.41,1.79a1.74,1.74,0,0,0-.18.22c-1.64,2.07-3.29,4.13-5.09,6-.06.06-.12.14-.19.2a38.86,38.86,0,0,1-2.9,2.84,28,28,0,0,1-6,4.18c-.65.31-1.31.62-2,.89l-.15.73c.82-.31,1.62-.68,2.4-1.06a28.8,28.8,0,0,0,6.16-4.26,43.48,43.48,0,0,0,3.14-3.08,1.31,1.31,0,0,0,.2-.21c1.83-2,3.51-4.08,5.16-6.18a1.81,1.81,0,0,0,.18-.23c.4-.49.79-1,1.18-1.49A84.1,84.1,0,0,1,476,356a37.45,37.45,0,0,1,12.56-7.57A27.67,27.67,0,0,1,495.8,347a26.64,26.64,0,0,1,2.68-.06C498.46,346.82,498.43,346.69,498.4,346.56Zm-6.6-23.32c-2.24.86-4.49,1.67-6.79,2.32a2.44,2.44,0,0,1-.26.06c-.52.15-1,.28-1.54.41a33.18,33.18,0,0,1-7.28,1,24.81,24.81,0,0,1-3.66-.23c-1.21-.21-2.43-.39-3.64-.65-.65-.15-1.31-.32-2-.5a5.14,5.14,0,0,0-.29.51c.7.2,1.41.39,2.13.56s1.23.25,1.84.37,1.23.24,1.84.33a26.14,26.14,0,0,0,3.75.24,33.77,33.77,0,0,0,7.43-1c.66-.16,1.31-.34,2-.52a1.34,1.34,0,0,0,.26-.09c2.18-.62,4.32-1.38,6.44-2.18C492,323.64,491.88,323.43,491.8,323.24Zm3.53,11.05c-2.84-2.18-5.52-4.57-8.23-6.93L485.59,326l-.58-.48a96.85,96.85,0,0,0-9.56-7.45c-.74-.49-1.48-1-2.23-1.4l-.2.18c.78.45,1.54.93,2.3,1.42a84,84,0,0,1,9.43,7.31l.58.51c.54.46,1.07.94,1.61,1.41,2.79,2.47,5.56,5,8.53,7.25C495.41,334.62,495.37,334.45,495.33,334.29Z" style="fill:#fff"></path><path d="M467.51,334.9c3,17.66,17.83,50.69,27.49,53.8,11.18,3.6,50-8.81,57.62-14.39,3-2.22-13.13-21.78-16.9-20.39-15.81,5.82-29.82,8.8-31.86,7.42-3.12-2.13-15.87-20.4-24.16-31.73C469.28,315.37,466.16,327,467.51,334.9Z" style="fill:#ad6359"></path><polygon points="585.45 312.69 566.41 300.68 553.15 338.12 572.08 348.07 585.45 312.69" style="fill:#FFC727"></polygon><polygon points="585.45 312.69 566.41 300.68 553.15 338.12 572.08 348.07 585.45 312.69" style="opacity:0.1"></polygon><path d="M583.07,312.67l-16.18-10-.65,1.17-10.49,30.1a37.68,37.68,0,0,1,3.89,4.14c1.51,2,5.88,8.39,10.82,8.62Z" style="fill:#fff"></path><path d="M582.38,314.61a27.28,27.28,0,0,1-6.48-3.8c-2.18-2-4.3-4.24-6.06-5.19s-3.53-1.94-3.53-1.94l.58-1,16.18,10Z" style="fill:#ebebeb"></path><polygon points="544.81 350.09 573.94 348.87 585.45 312.69 554.99 311.74 544.81 350.09" style="fill:#FFC727"></polygon><path d="M551.62,374.84c1.72-.62,13.61-9.25,17.12-13.3a52.17,52.17,0,0,0,9.14-14.17c3.53-8.22,5.18-14.23,4.34-16.92-1-3.13-1.27-3.64-9.49,10-4.65,7.71-9.09,8.58-12.94,8.51a59.19,59.19,0,0,0-27.31,6.1S545,377.21,551.62,374.84Z" style="fill:#ad6359"></path><path d="M549.71,343.38a31.7,31.7,0,0,0-7.43,2.91,19.21,19.21,0,0,0-5.37,5c-.07.08.05.2.12.11,3.26-4,8.08-6,12.71-7.94A.06.06,0,0,0,549.71,343.38Z" style="fill:#263238"></path><path d="M561.72,348.89c-4,.06,8.94-8,9.13-12.52s-4.21-3.1-7.68-.54c-12.06,8.85-21.16,8.42-27.27,16.89S561.72,348.89,561.72,348.89Z" style="fill:#ad6359"></path><path d="M504.71,360.25c3.09.83,24.61-5.07,24.61-5.07l12.09,29.24s-37.47,8.72-46.21,5.7-22.37-32.75-26.77-50c-4.14-16.23,1.37-26.83,13-10C481.4,330.09,503.1,359.81,504.71,360.25Z" style="fill:#FFC727"></path><path d="M512.55,359.28l-1.21,1.34a101.63,101.63,0,0,1-10.54,10.52,42.61,42.61,0,0,1-8.32,5.42l-.46.21a34.4,34.4,0,0,1-4.18,1.68,25.72,25.72,0,0,1-2.77.76c-.07-.14-.16-.27-.24-.41a23.33,23.33,0,0,0,2.86-.81,33.82,33.82,0,0,0,3.54-1.4l.46-.22a41.46,41.46,0,0,0,8.73-5.69,98.67,98.67,0,0,0,10.45-10.5c.21-.22.41-.46.63-.69Zm18.71.58a88.17,88.17,0,0,1-9.07,9,40.06,40.06,0,0,1-12.73,7.32,27.34,27.34,0,0,1-7.21,1.41,32.48,32.48,0,0,1-7.36-.48c-.8-.16-1.61-.32-2.41-.51-.27-.05-.53-.12-.79-.19-3.4-.85-6.75-2-10.07-3.16.06.1.11.21.18.32,3.11,1.1,6.23,2.21,9.43,3.06.26.07.52.13.79.18.92.24,1.87.46,2.82.63a32.45,32.45,0,0,0,7.43.56,27.75,27.75,0,0,0,7.34-1.37,40.09,40.09,0,0,0,13-7.32,89.28,89.28,0,0,0,9-8.76Zm-37.48-13.08a27.8,27.8,0,0,0-5.34,1.24,37.13,37.13,0,0,0-12.8,7.59c-.52.47-1,.93-1.52,1.42.09.19.16.39.25.59.54-.55,1.09-1.07,1.66-1.58a37.45,37.45,0,0,1,12.56-7.57,27.67,27.67,0,0,1,5.48-1.3Zm-14.85-20a27.3,27.3,0,0,1-3,.19,24.81,24.81,0,0,1-3.66-.23c-1.21-.21-2.43-.39-3.64-.65l-1.1-.27c0,.18-.08.36-.11.56.35.11.72.19,1.08.28.61.17,1.23.25,1.84.37s1.23.24,1.84.33a26.14,26.14,0,0,0,3.75.24,30.78,30.78,0,0,0,3.46-.24Z" style="fill:#fff"></path><path d="M522.86,388.18l-2.72.47" style="fill:#ebebeb"></path><path d="M509.17,359.93c.81-.14,1.7-.3,2.63-.48" style="fill:#ebebeb"></path><path d="M494.73,389.22c-7.33-3.76-16.37-23.4-18.1-27.26-1.12-2.46-2.13-5-3.13-7.49-2-5-3.84-10.13-5.59-15.26,0-.08-.16,0-.14.05,1,3.95,2.13,7.87,3.47,11.73a42.46,42.46,0,0,1-2.39-4.46c0-.08-.16,0-.13.05a24.77,24.77,0,0,0,2.78,5.17c1.38,3.87,2.93,7.68,4.66,11.4.5,1.07,10.95,25.13,19.14,27.37,2.85.77,12.6.07,14.66-.4.09,0,.12-.13,0-.14C507.16,389.92,497.35,390.56,494.73,389.22Z" style="fill:#263238"></path><path d="M533.32,380.88c-.36-1-.74-2-1.11-3-.75-2-5.26-14-7.21-17.7a.1.1,0,0,0-.18.07c1.1,4.1,5.88,15.9,6.68,17.85.41,1,.82,2,1.24,3s1,1.94,1.38,2.94c0,.09.2.05.16-.05C533.92,382.94,533.68,381.89,533.32,380.88Z" style="fill:#263238"></path><path d="M529.33,355.23c-1.79.08-17.89,3.82-21.45,4.62a7.16,7.16,0,0,1-2.63.36,3.83,3.83,0,0,1-2.11-1.57c-1.15-1.33-13.74-18-14.66-18.79-.34-.31-.62-.37-.29.15.56.91,12.81,17.35,13.92,18.64s2,2.46,3.74,2.39c.76,0,22.48-4.9,23.55-5.35A.23.23,0,0,0,529.33,355.23Z" style="fill:#263238"></path><path d="M487.1,327.36c-3.27-.07-10.58-5.43-11.63-10.41-.08-.34,1.3-3.29,2.8-7,.9-2.23,1.85-4.73,2.55-7.08.15-.48,13.65,8,13.65,8a38.93,38.93,0,0,0-4.12,8.58,6.21,6.21,0,0,0-.18,1s0,.1,0,.16C489.89,322.56,490.6,327.43,487.1,327.36Z" style="fill:#ad6359"></path><path d="M490.17,320.48s0,.1,0,.16a9.94,9.94,0,0,1-1.53-.37c-8.61-2.79-7.65-14.32-7.27-17.2,2.51,1.16,13.14,7.82,13.14,7.82a39.12,39.12,0,0,0-4.13,8.6A5.18,5.18,0,0,0,490.17,320.48Z" style="fill:#263238"></path><path d="M483.57,283.82c-3,4.84-4.26,20.79-1.42,25.18,4.13,6.36,12.9,9.18,18.81,3.76,5.73-5.25,7-26.07,3.63-30.26C499.63,276.32,488,276.67,483.57,283.82Z" style="fill:#ad6359"></path><path d="M496.25,297.1s-.08,0-.09.09c-.05,1.08-.3,2.3-1.3,2.58,0,0,0,.06,0,.06C496.07,299.76,496.37,298.13,496.25,297.1Z" style="fill:#263238"></path><path d="M495.39,295.9c-1.72-.28-2.14,3.18-.55,3.43S496.83,296.13,495.39,295.9Z" style="fill:#263238"></path><path d="M502.16,297.8s.08.06.07.1c-.16,1.07-.17,2.32.75,2.79,0,0,0,.07,0,.06C501.81,300.44,501.84,298.78,502.16,297.8Z" style="fill:#263238"></path><path d="M503.26,296.8c1.73.08,1.44,3.55-.17,3.47S501.8,296.73,503.26,296.8Z" style="fill:#263238"></path><path d="M494.22,294.15a13.41,13.41,0,0,0,1.4-.3,2.34,2.34,0,0,0,1.36-.59.74.74,0,0,0,0-.9,1.83,1.83,0,0,0-1.8-.41,2.76,2.76,0,0,0-1.68,1A.79.79,0,0,0,494.22,294.15Z" style="fill:#263238"></path><path d="M504.81,295.22a12.63,12.63,0,0,1-1.33-.52,2.36,2.36,0,0,1-1.26-.79.73.73,0,0,1,.16-.89,1.83,1.83,0,0,1,1.84-.12,2.66,2.66,0,0,1,1.5,1.22A.78.78,0,0,1,504.81,295.22Z" style="fill:#263238"></path><path d="M493.78,306.67c.23.28.44.66.83.74a2.81,2.81,0,0,0,1.18-.13,0,0,0,0,1,0,.06,1.47,1.47,0,0,1-1.43.42,1.17,1.17,0,0,1-.73-1.05C493.66,306.64,493.75,306.63,493.78,306.67Z" style="fill:#263238"></path><path d="M495.3,303.6a3.65,3.65,0,0,0,2.23,1.92,4.8,4.8,0,0,0,1.31.23h.49a.26.26,0,0,0,.24-.21h0a.41.41,0,0,0,0-.11h0v-.09c.12-.82.19-2.09.19-2.09.29.19,1.74,1.07,1.77.64a55.91,55.91,0,0,0-.06-11.2c0-.12-.2-.12-.2,0-.35,3.44-.1,6.92-.4,10.38a6.52,6.52,0,0,0-1.65-.73c-.13,0-.1,2.44-.19,2.81v0a5.1,5.1,0,0,1-3.63-1.64C495.34,303.45,495.25,303.51,495.3,303.6Z" style="fill:#263238"></path><path d="M498.4,305.27a4.42,4.42,0,0,1-1.89,1.13,2,2,0,0,1-1.19-.07c-.83-.33-.76-1.12-.52-1.77a4.83,4.83,0,0,1,.51-1A5.67,5.67,0,0,0,498.4,305.27Z" style="fill:#263238"></path><path d="M496.51,306.4a2,2,0,0,1-1.19-.07c-.83-.33-.76-1.12-.52-1.77A2,2,0,0,1,496.51,306.4Z" style="fill:#ff9bbc"></path><path d="M507.05,288a2.6,2.6,0,0,0-.78-1.75,6.73,6.73,0,0,0-.74-3.72,5.35,5.35,0,0,0-2.59-2.85,8,8,0,0,0-3.93-2.8,10.29,10.29,0,0,0-3.42-.51c-.79.17-1.51-.36-2.27-.51a5.08,5.08,0,0,0-2.16,0,5.77,5.77,0,0,0-1.7.68,7.77,7.77,0,0,0-.88.66,2.49,2.49,0,0,1-1.46.53,4.47,4.47,0,0,0-3.12,1.91,5.8,5.8,0,0,0-.92,2.16c-.21,1-1.31,1.24-1.84,2a3.7,3.7,0,0,0,0,4.11,4,4,0,0,0-1.88,4.36,3.88,3.88,0,0,0,2.37,2.59,2.79,2.79,0,0,0,.61.22c2.21.78,4.91-1.32,4.57-4.18v0a6.3,6.3,0,0,0,3.52-1.67,6.88,6.88,0,0,0,1.89-3.91,5,5,0,0,0,8-2.34c.66,1,2.73,3,3.87,2.82-.12,3.39,1.82,5,2.4,5.09A4.26,4.26,0,0,0,507.05,288Zm-22.28,6.55a6,6,0,0,0,2.06-3.48A3.74,3.74,0,0,1,484.77,294.53Zm10.84-8.47A5.78,5.78,0,0,0,500,283,4.58,4.58,0,0,1,495.61,286.06Z" style="fill:#263238"></path><path d="M492.55,302.69a5.08,5.08,0,1,1,6.29-5h0a5.09,5.09,0,0,1-5,5.12A5.16,5.16,0,0,1,492.55,302.69Zm2.26-9.21a4.31,4.31,0,0,0-1.08-.12,4.37,4.37,0,1,0,1.08.12Z" style="fill:#455a64"></path><path d="M504.13,304.08c-1.89-.47-3.13-2.82-2.8-5.45a6,6,0,0,1,1.5-3.39,3.41,3.41,0,0,1,2.88-1.19,3.37,3.37,0,0,1,2.5,1.86,6,6,0,0,1,.62,3.65c-.34,2.78-2.31,4.83-4.38,4.58Zm1.75-9.3a1.11,1.11,0,0,0-.25,0,2.7,2.7,0,0,0-2.3,1,5.38,5.38,0,0,0-1.33,3c-.3,2.41.83,4.54,2.54,4.75s3.32-1.57,3.62-4a5.39,5.39,0,0,0-.55-3.25A2.77,2.77,0,0,0,505.88,294.78Z" style="fill:#455a64"></path><path d="M498.6,298.28l-.37-.57c.85-.55,2.72-1.19,3.79.28l-.55.4C500.51,297.07,498.68,298.23,498.6,298.28Z" style="fill:#455a64"></path><path d="M476,296.77l-.56-.38c.18-.26,1.79-2.55,3.33-2.61s10.36,1.92,10.74,2l-.15.66c-2.56-.57-9.46-2-10.57-2S476.41,296.14,476,296.77Z" style="fill:#455a64"></path><path d="M484.08,297.41s-2.25-5.79-4.8-5.1-1.69,8.49.71,10.11a2.76,2.76,0,0,0,3.94-.57Z" style="fill:#ad6359"></path><path d="M479.58,294.54s-.06,0,0,.07c1.67,1.19,2.22,3.14,2.47,5.09a1.53,1.53,0,0,0-2.12-.95s0,.11,0,.11a1.7,1.7,0,0,1,1.67,1,7.58,7.58,0,0,1,.51,1.68c.05.19.37.17.35,0v0C483.08,299.13,482.05,295.39,479.58,294.54Z" style="fill:#263238"></path><path d="M491.31,320.32s-.05,0-.05,0c.41,3.08,1.15,10.23-3.56,10.1a10,10,0,0,1-5.21-2.25,27.2,27.2,0,0,1-4.26-3.91,40,40,0,0,1-4.07-5.11c-.05-.08-.17,0-.11.09,1.24,1.81,2.3,3.72,3.71,5.41a23.63,23.63,0,0,0,4.61,4.33c1.62,1.13,3.53,2.22,5.53,2.18a3.79,3.79,0,0,0,3.63-3.2A18,18,0,0,0,491.31,320.32Z" style="fill:#263238"></path></g><g id="freepik--character-1--inject-67"><path d="M107.68,389c2.22,1.3,70.59,15.59,73.54,14.48,1.12-.41,3.78-10.24,6.66-22.22.62-2.59,1.25-5.26,1.87-8,4.05-17.65,7.94-36.47,7.94-36.47l-45.7-9.7-6.69,36.75-1.47,8.06s-28.62,6.23-31.73,7.79S105.46,387.7,107.68,389Z" style="fill:#f7a9a0"></path><path d="M186.77,385.83c-2.43,9.82-4.58,17.29-5.55,17.66-2.95,1.1-71.32-13.2-73.54-14.5s1.33-7.72,4.41-9.28c1.92-.95,13.55-3.7,22.18-5.66-7.53,1.8-21.6,6.91,7.49,9C165.8,384.81,181.67,385.61,186.77,385.83Z" style="fill:#263238"></path><path d="M168.92,421.82c2.48.69,72.23-2.91,74.8-4.73.57-.39-.08-9.77-.87-18.2-.58-6.28-15.82-49.78-15.82-49.78l-46.67,2.27,19.17,44.71s-26.09,13.33-28.7,15.63S166.44,421.13,168.92,421.82Z" style="fill:#f7a9a0"></path><path d="M243.72,417.09c-2.57,1.82-72.32,5.42-74.8,4.74s-.69-7.82,1.91-10.11c1.22-1.08,7.52-4.53,13.91-7.91-8,4.51-20.71,14.57,58.25-3.37C243.71,408.43,244.25,416.72,243.72,417.09Z" style="fill:#263238"></path><path d="M277.59,286c-13.9,15.49-60.61,3.25-63.41,9.42-2.45,5.43,29.42,92.72,29.42,92.72l-51,5.5s-44-96.4-28.29-124.25c8.5-15,46-9,68.57-11.8,6.82-.83,10-14.89,10-14.89h40.4S293.48,268.31,277.59,286Z" style="fill:#263238"></path><path d="M178.48,260.77l42.83,32.77c14.23-.3,45.36,4.63,56.28-7.53,15.89-17.71,5.7-43.3,5.7-43.3h-40.4s-3.2,14.06-10,14.89C217,259.53,193.84,257.15,178.48,260.77Z" style="fill:#37474f"></path><path d="M190.64,382.27c1.41-.44,14.64-1.92,17.55-2.23,5.84-.63,24.23-2.35,27.56-2.34a.08.08,0,0,1,0,.15c-2.89.61-14.62,2-17.54,2.28-5.85.6-25.93,2.55-27.55,2.39A.13.13,0,0,1,190.64,382.27Z" style="fill:#37474f"></path><path d="M208,290.31c3.28-1.63,28.14-.82,46-2.49,5.81-.54,11.64-1.78,16.08-5.59A26.63,26.63,0,0,0,278,269.15c1.71-6.09,1.53-12.45,1.24-18.7-.07-1.53-.18-3.07-.27-4.6,0-.09.15-.11.16,0,1.36,11.18,2.39,23.68-4.88,33.37a23.37,23.37,0,0,1-13,8.53c-10.76,2.83-51.21,2.13-52.64,3.22-1.7,1.3,24.45,80.91,25,82.43.1.29-.4.48-.52.2C230.48,367.47,205.14,291.73,208,290.31Z" style="fill:#37474f"></path><path d="M162.47,272.09c2.41-6.1,7.89-9.9,16-11.36.14,0,.13.17,0,.21-7,2.06-12.08,4.89-14.85,10.84-1.29,2.77-2,6.67-2.3,11.9-1.67,26.06,21.08,85.24,21.54,86.27a.08.08,0,0,1-.14.07C179.48,364.63,152.54,297.29,162.47,272.09Z" style="fill:#37474f"></path><path d="M144,361.52l38.62,8.21s-30.47-90.94-16.16-102.67c4-3.26,12.62-4.39,22.9.05,15.34,6.62,33.11,20.14,49.85,25.08,15.69,4.63,34.3.37,40.71-6.68,13.46-14.82,3.33-42.82,3.33-42.82l-55.54-2.08s.83.67-1.82,3c0,0-32.65-7.4-46.84,1.27C153.5,260.53,144,361.52,144,361.52Z" style="fill:#263238"></path><path d="M259.29,245.94a.1.1,0,0,1,.19,0,31.68,31.68,0,0,0,.48,6.23,10.79,10.79,0,0,0,2.8,5.18c3,3.08,7.41,4.12,11.4,5.38.22.07.18.44-.06.4-4.43-.68-9.09-1.8-12.32-5.12a10.75,10.75,0,0,1-2.87-5.58A13.34,13.34,0,0,1,259.29,245.94Z" style="fill:#37474f"></path><path d="M167.45,265.32c5.94-3.73,15.22-.9,19.67.81a.08.08,0,0,1-.05.15c-4.09-1.47-14.26-3.7-19.7.15-12.57,8.91,4.25,69.79,15.28,103.3.18.52-.24.39-.47-.12-1.82-4-16-46.31-19.75-74.33C161.86,291,158.89,270.69,167.45,265.32Z" style="fill:#37474f"></path><path d="M148.43,351.25c1.17,0,11.18,2.17,13.38,2.67,4.42,1,14.64,3.64,17,4.55.07,0,0,.16,0,.15-2.29-.22-7.62-1.39-9.82-1.9-4.41-1-19.5-4.64-20.61-5.23A.14.14,0,0,1,148.43,351.25Z" style="fill:#37474f"></path><path d="M169.34,263.74c4-2.19,8.75-2.54,13.19-2A46.2,46.2,0,0,1,196,266c9,4.13,17.65,9.18,26.69,13.29s18.6,7.28,28.51,7.59c8.48.26,19.2-1.24,24.65-8.86,8.39-11.74,3.5-32,3.41-33.3,0-.1.13-.1.15,0,6.51,24.89-1.87,34.55-7.52,38.62-4.49,3.23-10.94,4-15.21,4.4-9.86.84-19.74-1.58-28.88-5.22-9.37-3.73-18.15-8.75-27.13-13.34-8.6-4.41-18.19-8.95-28-6.42a23.75,23.75,0,0,0-3.27,1.11S169.29,263.77,169.34,263.74Z" style="fill:#37474f"></path><path d="M217.86,196.73a.46.46,0,0,0,.45.41l1.9-.21c.89-4.68,2.08-8.49,1.85-7.05a23,23,0,0,0,0,6.83c.84-.1,2.77-.36,3.74-.49.07-8,.91-14,1.11-12.24.81,7.2,1.65,9.41,2.58,11.77,9-1.2,20.83-2.9,29.35-4.31.21-4.44.23-9.21.44-8.91,1.59,2.2,2.54,5.63,3.05,8.32,2.7-.47,4.86-.89,6.16-1.22,0,0,0-3.7-.14-4.89a24.84,24.84,0,0,0-2.57-8.81,45,45,0,0,0-5.43-7.62.15.15,0,0,0-.05-.06s0,0,0,0a25.36,25.36,0,0,1-3.26-5.15l0,0a25.62,25.62,0,0,1-1.47-4.15c-1.34-5.19-5.13-9.21-10.33-9.71-11.05-6.63-20.62,1.4-21.62,7.91-.4,2.61-.56,7.34-.8,10.53,0,0,0,0,0,0s0,0,0,0h0a29.15,29.15,0,0,1-.48,3.72C221,177.33,216.12,181.42,217.86,196.73Z" style="fill:#263238"></path><path d="M247.64,150.24a10.12,10.12,0,0,1,7.19,7,26.15,26.15,0,0,0,2.48,6.3,23.37,23.37,0,0,0,4.78,5.09c2.81,2.43,4.92,5,6,8.68a29.36,29.36,0,0,1,1,12.12s0,0,0,0a31.27,31.27,0,0,0-1.81-12.51c-1.47-4-4.3-6.24-7.29-9a17.69,17.69,0,0,1-5.08-7.87c-.59-1.86-.92-3.84-2-5.49-1.3-2-3.37-3-5.39-3.89A.23.23,0,0,1,247.64,150.24Z" style="fill:#263238"></path><path d="M217.94,178.28c1.76-3.4,3.68-6.37,4.36-10.31.61-3.6.67-7.29,1.3-10.88,0-.06.1-.05.09,0-.84,6.33-.12,12.43-3.08,18.16-1.6,3.11-3.25,6-4,9.55a29.79,29.79,0,0,0-.22,11.22c0,.13-.15.15-.19,0A24.61,24.61,0,0,1,217.94,178.28Z" style="fill:#263238"></path><path d="M246.84,149.83c-1.56-2-.7-8.25,2.57-10.57,4.52-3.19,12,2.59,9.29,8.19S248,151.41,246.84,149.83Z" style="fill:#263238"></path><path d="M257.33,140.58a11.08,11.08,0,0,0-4.7-2.58,4.46,4.46,0,0,0-2.49.14,4.37,4.37,0,0,0-1.95,1.54,10.08,10.08,0,0,0-1.26,2.31,11.84,11.84,0,0,0-.74,2.55,9,9,0,0,0,.65,5.29,7.9,7.9,0,0,1-1.35-5.37,10.62,10.62,0,0,1,.65-2.78,10.32,10.32,0,0,1,1.34-2.54,5.11,5.11,0,0,1,2.37-1.79,4.87,4.87,0,0,1,3,0A9.15,9.15,0,0,1,257.33,140.58Z" style="fill:#263238"></path><path d="M233.62,149.68c-2.12,1.09-7.66-.7-9.25-4.07-2.19-4.64,4.3-10.54,9-7.17S235.26,148.83,233.62,149.68Z" style="fill:#263238"></path><path d="M226.85,138.59a10.19,10.19,0,0,0-3.11,3.88,4.09,4.09,0,0,0-.28,2.3,4.17,4.17,0,0,0,1.09,2,9.53,9.53,0,0,0,1.91,1.52,10.89,10.89,0,0,0,2.22,1.09,8.47,8.47,0,0,0,4.94.27,7.36,7.36,0,0,1-5.13.36,10.13,10.13,0,0,1-2.44-1,9.44,9.44,0,0,1-2.11-1.64,4.87,4.87,0,0,1-1.25-2.46,4.62,4.62,0,0,1,.46-2.7A8.59,8.59,0,0,1,226.85,138.59Z" style="fill:#263238"></path><path d="M250.56,194.45c-6,16.3-16.6,35.4-20.43,38.22-4.84,3.58-30.87,6.19-32.31,6.16-3.57-.1-5.92-24-2.1-24.08,5.82-.09,21.82.41,23.23-.71S230.6,203,241.22,191.63C248.55,183.8,254.3,184.34,250.56,194.45Z" style="fill:#f7a9a0"></path><path d="M199.18,238.85a72.88,72.88,0,0,1-10.08,2.84c-2.71.42-10.54,1.42-11.3-1.52-.52-2,4-3.13,7.21-4,1.68-.46,3.86-1.88,3.52-3-.59-1.9-4.93-.63-7.83.59-5.61,2.36-13.26,6.92-16.11,3.87-1.08-1.16.56-2.8,2.83-4.33-3.59,1.66-7.35,2.91-8.59,1.67a1.76,1.76,0,0,1-.09-2.42,2.35,2.35,0,0,1-2.51-.73c-.93-1.27-.19-2.87,1.21-4.43a1.33,1.33,0,0,1-.9-.77c-1.83-3.78,10.9-12.32,15-12.74a100.78,100.78,0,0,1,24.2.83C199.83,219,199.19,238.85,199.18,238.85Z" style="fill:#f7a9a0"></path><path d="M183.44,225.93a19.73,19.73,0,0,0-8.15,2c-3.21,1.57-5.46,3.59-8.23,5.57-.07,0,0,.17.08.12,1.32-.94,6.74-4.42,8.12-5.19a18.92,18.92,0,0,1,8.18-2.44S183.47,225.93,183.44,225.93Z" style="fill:#263238"></path><path d="M181.91,220.71a47.28,47.28,0,0,0-9.44,2c-3.32,1.19-6.08,3.46-8.79,5.63q-2.44,2-4.8,4c-.07.06,0,.17.08.12q4.14-3.39,8.47-6.51a25.21,25.21,0,0,1,8.91-4.14c1.84-.44,3.71-.74,5.57-1C182,220.76,181.94,220.7,181.91,220.71Z" style="fill:#263238"></path><path d="M179.19,216c-3.05.22-5.71.41-8.55,1.66a43.66,43.66,0,0,0-8.92,5.89c-1.48,1.23-2.93,2.5-4.35,3.79-.06.06,0,.16.09.11a100.6,100.6,0,0,1,10.23-7.82,19.79,19.79,0,0,1,5.5-2.64,34.7,34.7,0,0,1,6-1S179.21,216,179.19,216Z" style="fill:#263238"></path><path d="M195.82,213l5.2,28.91s24.61-3.72,29.56-7.84,16.06-27.25,19.93-38.66-2.1-11.88-8.49-5.2S219.77,213,219,213.3,195.82,213,195.82,213Z" style="fill:#455a64"></path><path d="M204.88,229.82c-.64-3.41-1.3-6.82-1.82-10.26-.29-1.95-.59-3.9-.86-5.86,0-.07.11-.1.13,0,.77,3.4,1.55,6.82,2.17,10.25s1.27,6.83,1.84,10.26c.33,1.94.6,3.9.8,5.86,0,0-.06.06-.07,0C206.18,236.68,205.53,233.26,204.88,229.82Z" style="fill:#263238"></path><path d="M200.5,239l.51,2.88s24.63-3.72,29.57-7.84,16.06-27.25,19.93-38.66c2.82-8.34.4-10.84-3.61-9C235.23,199.38,213.21,224,200.5,239Z" style="fill:#37474f"></path><path d="M284.56,242.57l-58.21,1,4.56-17.42s-4.83-4.4-2.43-13.21c1.39-5.12,7.83-14.81,11.89-19.69,9.89-11.88,18.49-6.51,21.23-3.45C272.07,201.42,284.56,242.57,284.56,242.57Z" style="fill:#455a64"></path><path d="M259.59,188l-14,.32.53-.34,13-.3A5.72,5.72,0,0,1,259.59,188Zm3.81,4-22.45.51-.29.34,23-.52Zm2.79,4.38-28.79.66-.24.33,29.22-.67Zm2.36,4.38-34.24.78c-.07.12-.14.24-.22.35l34.62-.8Zm2.11,4.39-39.09.9c-.06.11-.12.22-.19.33l39.43-.9Zm1.94,4.4-43.29,1c-.05.12-.1.23-.14.34l43.58-1Zm1.84,4.4L228,215c0,.11,0,.22-.05.33l46.6-1.07C274.53,214.19,274.49,214.08,274.44,214Zm1.74,4.39-48.24,1.11c0,.12,0,.23.05.34l48.32-1.11C276.27,218.59,276.22,218.48,276.18,218.36Zm1.66,4.41-48.52,1.11.18.32L278,223.1Zm1.59,4.4-49.08,1.13-.09.33,49.29-1.13C279.51,227.39,279.48,227.28,279.43,227.17Zm1.54,4.41-51.79,1.18-.09.34,52-1.2Zm1.49,4.4L228,237.23l-.09.34,54.64-1.26C282.53,236.2,282.49,236.09,282.46,236Zm1.42,4.41-57,1.3-.09.34L284,240.72C284,240.62,283.92,240.5,283.88,240.39Z" style="fill:#fff"></path><path d="M246.49,225.07a52,52,0,0,0-7.49-.13c-1.24.09-2.47.24-3.7.41-.61.08-1.22.15-1.84.21a7.79,7.79,0,0,1-1.93,0,0,0,0,0,0,0,.09,13.94,13.94,0,0,0,1.81.3,13.22,13.22,0,0,0,1.78,0c1.26-.07,2.51-.21,3.77-.3,2.53-.18,5.07-.36,7.61-.36C246.6,225.28,246.6,225.08,246.49,225.07Z" style="fill:#263238"></path><path d="M252.14,228.34a53.63,53.63,0,0,0-6-1.4c-1-.17-2-.28-3.06-.37l-1.47-.1c-.55,0-1.09,0-1.63,0-.06,0-.07.08,0,.09.51.05,1,.18,1.52.26L243,227c1,.16,2,.33,3.05.48,2,.3,4.06.62,6.09,1C252.23,228.52,252.25,228.37,252.14,228.34Z" style="fill:#263238"></path><path d="M254.67,187.11c0,1.08-3,9-7.76,10-1.53.33-3.73-8-3.73-8l-.3-.57-4.22-8.06,8.33-9.17,1.23-1.25s1,2.28,2.24,5.13l.17.41c.08.16.15.31.21.46.19.43.38.86.56,1.3s.28.65.41,1,.28.69.42,1.05A57.44,57.44,0,0,1,254.67,187.11Z" style="fill:#f7a9a0"></path><path d="M250.46,175.25a18.26,18.26,0,0,1-7.58,13.35l-4.22-8.06,8.33-9.17,1.23-1.25S249.23,172.4,250.46,175.25Z" style="fill:#263238"></path><path d="M223,169.81c1.79,15.87,11.5,16.59,14.92,16.2,3.1-.36,13.63-2,13.49-17.92s-8.09-20.15-15.23-19.72S221.25,154,223,169.81Z" style="fill:#f7a9a0"></path><path d="M225,166.82a9.9,9.9,0,0,0,1-.37,1.82,1.82,0,0,0,1-.58.59.59,0,0,0-.1-.69,1.43,1.43,0,0,0-1.42-.14,2.07,2.07,0,0,0-1.19.9A.61.61,0,0,0,225,166.82Z" style="fill:#263238"></path><path d="M235.81,164.84c-.37,0-.72-.05-1.1-.08a1.76,1.76,0,0,1-1.1-.3.56.56,0,0,1-.09-.69,1.4,1.4,0,0,1,1.33-.51,2,2,0,0,1,1.38.55A.61.61,0,0,1,235.81,164.84Z" style="fill:#263238"></path><path d="M233.83,169.54s.09,0,.1.09c.08,1.08.36,2.31,1.38,2.56,0,0,0,.06,0,.06C234.1,172.22,233.74,170.58,233.83,169.54Z" style="fill:#263238"></path><path d="M234.67,168.3c1.73-.32,2.25,3.15.65,3.45S233.23,168.58,234.67,168.3Z" style="fill:#263238"></path><path d="M235.38,168.39c.33.15.68.45,1.05.43s.7-.44.92-.83c0,0,.06,0,.07,0a1.3,1.3,0,0,1-.74,1.6c-.64.18-1.2-.33-1.46-1C235.17,168.52,235.25,168.32,235.38,168.39Z" style="fill:#263238"></path><path d="M227.82,170.22s-.07.06-.06.11c.2,1.07.26,2.32-.66,2.83,0,0,0,.07,0,.06C228.28,172.87,228.19,171.2,227.82,170.22Z" style="fill:#263238"></path><path d="M226.69,169.25c-1.75.14-1.34,3.63.28,3.5S228.15,169.13,226.69,169.25Z" style="fill:#263238"></path><path d="M226,169.57c-.26.21-.49.58-.82.64s-.7-.27-1-.6c0,0-.05,0-.05,0,.06.67.37,1.34,1,1.39s1-.58,1-1.26C226.21,169.65,226.09,169.48,226,169.57Z" style="fill:#263238"></path><path d="M235.29,178.35c-.2.3-.39.69-.77.8a3,3,0,0,1-1.2,0,0,0,0,0,0,0,.06,1.44,1.44,0,0,0,1.47.31,1.15,1.15,0,0,0,.65-1.11C235.41,178.31,235.32,178.3,235.29,178.35Z" style="fill:#263238"></path><path d="M230.25,175.08s0,1.64.1,2.4c0,.07.2.08.46.06h0a3.62,3.62,0,0,0,3.32-1.83.08.08,0,0,0-.13-.09,5.49,5.49,0,0,1-3.16,1.4c-.08-.2.09-2.81,0-2.8a6.65,6.65,0,0,0-1.67.63c-.1-3.41.34-6.81.19-10.21,0-.12-.19-.14-.21,0a55.59,55.59,0,0,0-.67,11C228.48,176,230,175.25,230.25,175.08Z" style="fill:#263238"></path><path d="M230.87,177.16a4.42,4.42,0,0,0,1.87,1.25,2,2,0,0,0,1.21,0c.86-.29.83-1.09.62-1.77a5,5,0,0,0-.46-1A5.74,5.74,0,0,1,230.87,177.16Z" style="fill:#263238"></path><path d="M232.74,178.41a2,2,0,0,0,1.21,0c.86-.29.83-1.09.62-1.77A2.05,2.05,0,0,0,232.74,178.41Z" style="fill:#ff9bbc"></path><path d="M251.41,170a6.62,6.62,0,0,1-4.58-4.68,17.25,17.25,0,0,1-7.91-4.37c.16.31,1.34,2.53,2,3.64-10.36-.12-14.81-7.26-14.81-7.26a17.53,17.53,0,0,0-3.27,7.12s-1.15-6.14,1.3-10.82a10.07,10.07,0,0,1,8.45-5.69,14.41,14.41,0,0,1,14.6,1.85C254.93,155.78,251.41,170,251.41,170Z" style="fill:#263238"></path><path d="M233,164.29a18.71,18.71,0,0,0,5.48,1s0,0,0,0a16,16,0,0,1-8.14-3.17,15.05,15.05,0,0,1-2.7-2.65,10.46,10.46,0,0,1-2-3.6c0-.09-.18-.05-.15,0a12.09,12.09,0,0,0,1.48,3.82,11.23,11.23,0,0,0,2.81,2.94,13.07,13.07,0,0,0,3.22,1.65Z" style="fill:#263238"></path><path d="M252.4,173.47a3.66,3.66,0,0,1-.69.34,2.29,2.29,0,0,1-.73.16,2.11,2.11,0,0,1-1-.11,2.76,2.76,0,0,1-.69-.33,3.18,3.18,0,0,1-.77-.76l0-4.36s2.44-5.57,4.9-4.8S254.81,172,252.4,173.47Z" style="fill:#f7a9a0"></path><path d="M253.1,165.78s.06,0,0,.06c-1.68,1.11-2.3,3-2.62,4.89a1.49,1.49,0,0,1,2.11-.84s0,.1,0,.1a1.67,1.67,0,0,0-1.68.93,7.85,7.85,0,0,0-.56,1.63c-.06.18-.37.15-.34-.05v-.05C249.5,170.14,250.65,166.51,253.1,165.78Z" style="fill:#263238"></path><path d="M264.57,191.87c9.45,8.28,33.68,40.88,27.73,47.87S249,241.88,238.21,238c-3.19-1.15,6.5-21.35,10-22.15,2.95-.67,18.92,4.78,19.27,3.86s-2.76-8.13-7.76-21C254,183.83,260.4,188.21,264.57,191.87Z" style="fill:#f7a9a0"></path><path d="M232.47,211.25c-7.53-.29-9.5.79-15.72-2.82-4.08-2.38-7.35-.79-4.74,3.37,4.27,6.8,13.9,9.21,17.48,9.09Z" style="fill:#f7a9a0"></path><path d="M252.89,216.41a76.68,76.68,0,0,0-16.79-4.89c-5.52-.76-17.72-1.08-28,12-2.45,3.1-3.75,9.24,2.09,5.65,4.14-2.56,6-5.43,8.68-6.48,0,0-.72,8,2.47,10.35a73.15,73.15,0,0,0,8.79,5.5,15.82,15.82,0,0,0,1.18-1.55s3.19,1.9,8.72.81Z" style="fill:#f7a9a0"></path><path d="M230.72,211.64c-2.45,1.6-7.57,5.08-10.77,9.39-3.55,4.78-9.1,15-5.54,17.54,2.61,1.9,5.07-1.8,5.07-1.8s-1.41,4.69,1.32,5.88c2.49,1.1,4.22-1.88,4.22-1.88s-.36,3,2.24,3.58c3.13.71,3.38-5.68,7.17-7.69C235.28,236.2,230.72,211.64,230.72,211.64Z" style="fill:#f7a9a0"></path><path d="M225.64,223.94a23.74,23.74,0,0,0-6.21,12.72c0,.12.07.19.1.09A58.76,58.76,0,0,1,225.68,224S225.66,223.92,225.64,223.94Z" style="fill:#263238"></path><path d="M230.36,227.66c-1.6,1.81-5,7.62-5.44,13.07,0,.12.08.19.11.08a62.22,62.22,0,0,1,5.38-13.11S230.38,227.64,230.36,227.66Z" style="fill:#263238"></path><path d="M218.82,222.6a19.92,19.92,0,0,0-5.7,3.92,32.22,32.22,0,0,1-2.92,2.28c-.93.64-2.3,1.59-3.43.86a2,2,0,0,1-.65-1.93,9.5,9.5,0,0,1,1.06-2.89s0-.07-.06,0a13.26,13.26,0,0,0-1.21,2.59,3.19,3.19,0,0,0,0,1.91c.49,1.3,2.08,1.32,3.16.84a12,12,0,0,0,1.81-1.11c.55-.4,1.08-.82,1.6-1.25,1.08-.9,2.09-1.85,3.16-2.75a28.94,28.94,0,0,1,3.25-2.36S218.86,222.58,218.82,222.6Z" style="fill:#263238"></path><path d="M214.61,231.61a75.75,75.75,0,0,1,4.26-9s0-.08-.05,0a39.16,39.16,0,0,0-4.81,8.61,13.27,13.27,0,0,0-1,5.25c.25,2.53,2,2.84,2.61,2.9a3.31,3.31,0,0,0,2.11-.57,6.64,6.64,0,0,0,1.77-2s0-.07-.06,0a4.67,4.67,0,0,1-3.52,2.17,2.31,2.31,0,0,1-1.65-.69,3,3,0,0,1-.61-2A14,14,0,0,1,214.61,231.61Z" style="fill:#263238"></path><path d="M252.89,216.41l-9.22,25.78s46.76,5.68,49.91-2.68-17.74-37.73-26.66-46c-10.33-9.58-11.15-5.89-8.17,3.23,3.12,9.55,8.66,23.24,8.66,23.24Z" style="fill:#455a64"></path><path d="M282,225.13a53.66,53.66,0,0,0-7.06-3.25,51.39,51.39,0,0,0-7.38-2.13c-1.43-.32-2.87-.57-4.31-.83,0,0-.05.06,0,.07a66.9,66.9,0,0,1,7.45,2.07q3.64,1.2,7.24,2.54c1.36.5,2.69,1.07,4,1.62A0,0,0,1,0,282,225.13Z" style="fill:#263238"></path><path d="M253,216.33c.23,0,13.78,3,14.21,3.13L263,209c-.27-.41-1.68-2.62-2-3.16,0,0,0,0,0,0,.34.53,1.39,1.77,1.54,2-.29-.66-1.61-4.1-2-5.19,0,0,0,0,.06,0,1.92,3.08,7.95,17.92,7.93,17.92s-15.26-3.94-15.54-4A.09.09,0,0,1,253,216.33Z" style="fill:#263238"></path><path d="M253.77,232.46c1-2.87,2-5.76,3.12-8.6.64-1.61,1.26-3.22,1.91-4.83,0-.06.14,0,.12,0-.9,2.92-1.82,5.85-2.85,8.74s-2,5.75-3.1,8.6c-.61,1.63-1.26,3.23-2,4.81,0,0-.07,0-.06,0C251.75,238.24,252.75,235.36,253.77,232.46Z" style="fill:#263238"></path><path d="M243.11,242.63c.39-.8.85-1.95,1.27-2.74.11-.21.26-.18.18,0-.28.72-.49,1.53-.76,2.27.65.06,1.31.11,2,.18l2.27.24c1.49.16,3,.3,4.46.42,3,.25,6,.43,9,.56a177.43,177.43,0,0,0,18.16-.12c1.69-.11,3.38-.25,5.06-.44s3.55-.42,4.95-.74c0,0,.06.07,0,.08a28.75,28.75,0,0,1-4.27,1c-1.52.23-3.05.41-4.57.55-3.05.27-6.11.38-9.16.4q-9.09.08-18.16-.61c-1.7-.13-3.39-.28-5.08-.44l-2.55-.27A16.14,16.14,0,0,1,243.11,242.63Z" style="fill:#263238"></path><rect x="180.14" y="245.36" width="58.88" height="2.64" style="fill:#c7c7c7"></rect><polygon points="180.14 245.35 180.14 247.99 220.17 247.99 218.15 245.35 180.14 245.35" style="fill:#a6a6a6"></polygon><polygon points="212.07 247.99 160.54 247.99 153.08 211.63 204.62 211.63 212.07 247.99" style="fill:#a6a6a6"></polygon><polygon points="209.66 247.99 158.13 247.99 150.67 211.63 202.21 211.63 209.66 247.99" style="fill:#c7c7c7"></polygon><path d="M175.52,228.46a3.64,3.64,0,0,0,2.57,3.67c1.47.3,2.71-.84,2.76-2.56a3.6,3.6,0,0,0-2.57-3.66C176.81,225.6,175.58,226.74,175.52,228.46Z" style="fill:#fff"></path></g></svg>